<svg width="1024" height="1024" xmlns="http://www.w3.org/2000/svg" class="icon">
 <defs>
  <style type="text/css">@font-face { font-family: element-icons; src: url("chrome-extension://moombeodfomdpjnpocobemoiaemednkg/fonts/element-icons.woff") format("woff"), url("chrome-extension://moombeodfomdpjnpocobemoiaemednkg/fonts/element-icons.ttf ") format("truetype"); }</style>
 </defs>
 <g>
  <title>background</title>
  <rect fill="none" id="canvas_background" height="402" width="582" y="-1" x="-1"/>
 </g>
 <g>
  <title>Layer 1</title>
  <path id="svg_1" fill="#c995a2" d="m1007.173565,401.957566c-8.793826,-112.425826 -91.644,-195.782 -199.694,-200.876a211.96,211.96 0 0 0 -38.214,1.636c-16.29,2.186 -32.568,-3.406 -43.984,-15.23c-45.61,-47.236 -119.836,-83.139739 -180.436,-76.618c-60.6,6.521739 -116.182,21.492 -159.536,57.27a49.026,49.026 0 0 1 -41.076,10.154a247.114,247.114 0 0 0 -51.32,-5.128c-134.946,31.034782 -218.915044,111.292 -244.86,246.24c-25.944956,134.948 4.44,53.114 12.55,77.466c4.196,12.6 3.798,26.366 -1.914,38.356c-14.002,29.39 -21.376,62.546 -20.18,97.538c3.696,108.11 90.32,161.681392 198.336,202.306c108.016,40.624608 21.756,0.33 32.316,-0.714a51.68,51.68 0 0 1 35.23,9.39c34.398,24.62 57.748609,34.762174 122.068,39.11c64.319391,4.347826 94.266,-16.856 130.024,-45.096c18.7,-14.768 44.866,-14.678 63.576,0.08c35.138,27.714 11.856,56.703478 127.434,45.002c115.578,-11.701478 211.404,-92.428 212.456,-208.008c0.242,-26.66 -4.49,-52.18 -13.32,-75.698c-6.518,-17.362 -2.684,-36.842 9.464,-50.854c33.718,-38.894 59.873826,-33.900174 51.08,-146.326z"/>
  <path stroke="null" id="svg_8" fill="#F1F1F1" d="m218.493493,381.420957l600,0l0,322.69565l-600,0l0,-322.69565z"/>
  <path stroke="null" id="svg_10" fill="#333333" d="m700.678678,666.685193l-136.232058,0l-1.960785,-223.271435c0,-10.944065 8.039094,-19.817069 17.954607,-19.817069l102.283629,0c9.915512,0 17.954607,8.873004 17.954607,19.817069l0,223.271435zm-253.036808,-145.169312l-83.747573,0c-9.646227,0 -17.464063,-8.630686 -17.464063,-19.27564l0,-59.366019c0,-10.646847 7.819551,-19.277533 17.464063,-19.277533l83.747573,0c9.646228,0 17.465778,8.630686 17.465778,19.277533l0,59.366019c0,10.646847 -7.81955,19.27564 -17.465778,19.27564z"/>
  <path stroke="null" id="svg_4" fill="#756477" d="m813.868147,345.019236l-588.388252,0a10.903548,9.036778 0 0 0 -10.903557,9.036778l0,20.288939a10.903548,9.036778 0 0 0 10.903557,9.036789l588.388252,0a10.903548,9.036778 0 0 0 10.903548,-9.036789l0,-20.288939a10.903548,9.036778 0 0 0 -10.903548,-9.036778z"/>
  <path stroke="null" id="svg_15" fill="#756477" d="m708.865644,642.845311l-154.470293,0a2.862522,5.964219 0 0 0 -2.862524,5.964219l0,13.390577a2.862522,5.964219 0 0 0 2.862524,5.964226l154.470293,0a2.862522,5.964219 0 0 0 2.862522,-5.964226l0,-13.390577a2.862522,5.964219 0 0 0 -2.862522,-5.964219z"/>
  <path id="svg_17" d="m476.130402,131.755425l-106.565185,53.027184" opacity="0.5" stroke-opacity="null" stroke-width="null" stroke="null" fill="#333333"/>
  <path id="svg_18" d="m382.608695,178.26087l-28.260869,-41.304348" opacity="0.5" stroke-opacity="null" stroke-width="null" stroke="null" fill="#333333"/>
 </g>
</svg>