<?xml version="1.0" standalone="no"?><!DOCTYPE svg PUBLIC "-//W3C//DTD SVG 1.1//EN" "http://www.w3.org/Graphics/SVG/1.1/DTD/svg11.dtd"><svg t="1627655078924" class="icon" viewBox="0 0 1332 1024" version="1.1" xmlns="http://www.w3.org/2000/svg" p-id="3165" xmlns:xlink="http://www.w3.org/1999/xlink" width="999" height="768"><defs><style type="text/css">@font-face { font-family: element-icons; src: url("chrome-extension://moombeodfomdpjnpocobemoiaemednkg/fonts/element-icons.woff") format("woff"), url("chrome-extension://moombeodfomdpjnpocobemoiaemednkg/fonts/element-icons.ttf ") format("truetype"); }
</style></defs><path d="M1101.76909465 415.97893299C1094.06853165 317.53187299 1021.52002065 244.54027699 926.90485265 240.07965999a185.6051 185.6051 0 0 0-33.462509 1.432581c-14.264517 1.914195-28.518527-2.982501-38.515072-13.336316-39.938897-41.362722-104.935708-72.802453-158.000763-67.091393-53.065055 5.710185-101.736043 18.819706-139.699449 50.149104a42.930155 42.930155 0 0 1-35.968651 8.891462 216.388086 216.388086 0 0 0-44.938921-4.49039C358.15254265 242.80997099 284.62416565 313.08876899 261.90514165 431.25746599c-22.719024 118.168697 3.887935 46.509857 10.989546 67.833953 3.674273 11.033328 3.32576 23.087677-1.676015 33.586852-12.261005 25.735676-18.718129 54.769091-17.670839 85.41022 3.236443 94.667708 79.089699 141.577742 173.675095 177.151469 94.585396 35.572851 19.05088 0.288968 28.29786-0.625222a45.254159 45.254159 0 0 1 30.849536 8.222457c30.120986 21.558773 50.56767 30.439727 106.890184 34.2471 56.321638 3.806498 82.545057-14.760141 113.856942-39.488807 16.37486-12.931761 39.287405-12.852952 55.671022 0.070053 30.768975 24.268068 10.381836 49.652604 111.58898 39.406495 101.207144-10.246985 185.118232-80.935592 186.039428-182.144488 0.21191-23.345122-3.931718-45.69199-11.663804-66.285784-5.707558-15.203226-2.350274-32.261102 8.287255-44.530863 29.525537-34.057958 52.428449-29.684907 44.728763-128.131968z" fill="#C995A2" p-id="3166"></path><path d="M411.15192265 397.99548399h525.396584v282.572293h-525.396584V397.99460799z" fill="#F1F1F1" p-id="3167"></path><path d="M833.38338465 647.79003599H714.09033865l-1.717171-195.509701c0-9.583234 7.039439-17.352974 15.721617-17.352974h89.566107c8.683054 0 15.722493 7.76974 15.722493 17.352974v195.509701z m-221.574626-127.119704h-73.334855c-8.446626 0-15.292543-7.556954-15.292543-16.878365v-51.984489c0-9.323162 6.847669-16.880117 15.292543-16.880117h73.334855c8.446626 0 15.294295 7.556954 15.294295 16.880117v51.984489c0 9.323162-6.847669 16.879241-15.294295 16.879241z" fill="#333333" p-id="3168"></path><path d="M932.49857465 366.12054899H417.27016565a9.548207 7.913348 0 0 0-9.548207 7.912473v17.766285a9.548207 7.913348 0 0 0 9.548207 7.913348h515.228409a9.548207 7.913348 0 0 0 9.548207-7.913348v-17.766285a9.548207 7.913348 0 0 0-9.548207-7.913349z" fill="#756477" p-id="3169"></path><path d="M840.55242065 626.91427799h-135.26335a5.222442 2.507017 90 0 0-2.507017 5.223318v11.7251a5.222442 2.507017 90 0 0 2.506141 5.222442h135.263351a5.222442 2.507017 90 0 0 2.507017-5.222442v-11.7251a5.222442 2.507017 90 0 0-2.506142-5.223318z" fill="#756477" p-id="3170"></path><path d="M530.087922 115.372712l-93.314811 46.43455" fill="#333333" p-id="3171"></path><path d="M448.195232 156.095325l-24.747054-36.167425" fill="#333333" p-id="3172"></path></svg>