<?xml version="1.0" standalone="no"?><!DOCTYPE svg PUBLIC "-//W3C//DTD SVG 1.1//EN" "http://www.w3.org/Graphics/SVG/1.1/DTD/svg11.dtd"><svg class="icon" width="64px" height="64.00px" viewBox="0 0 1024 1024" version="1.1" xmlns="http://www.w3.org/2000/svg"><path d="M545.4336 536.576m-281.4464 0a281.4464 281.4464 0 1 0 562.8928 0 281.4464 281.4464 0 1 0-562.8928 0Z" fill="#C0E1C6" /><path d="M516.7616 979.8144c-106.4448 0-390.8096-211.8656-390.8096-435.6608V255.2832c0-48.8448 30.8224-93.0816 76.6464-110.0288L476.1088 44.1856a117.48352 117.48352 0 0 1 81.3056 0l273.5104 101.0688c45.824 16.9472 76.6464 61.1328 76.6464 110.0288v288.9216c0 223.7952-284.3648 435.6096-390.8096 435.6096z m0-881.4592c-6.5536 0-13.1072 1.1776-19.3536 3.4816L223.8976 202.9056c-21.8112 8.0896-36.5056 29.1328-36.5056 52.3776v288.9216c0 188.4672 257.7408 374.2208 329.3696 374.2208s329.3696-185.7024 329.3696-374.2208V255.2832c0-23.2448-14.6432-44.3392-36.5056-52.3776l-273.5104-101.0688c-6.2464-2.304-12.8-3.4816-19.3536-3.4816z" fill="#4F4F4F" /><path d="M636.5184 441.1904H542.72V347.392c0-16.9472-13.7728-30.72-30.72-30.72s-30.72 13.7728-30.72 30.72v93.7984H387.4816c-16.9472 0-30.72 13.7728-30.72 30.72s13.7728 30.72 30.72 30.72H481.28v93.7984c0 16.9472 13.7728 30.72 30.72 30.72s30.72-13.7728 30.72-30.72V502.6304h93.7984c16.9472 0 30.72-13.7728 30.72-30.72s-13.7728-30.72-30.72-30.72z" fill="#4F4F4F" /></svg>