<?xml version="1.0" standalone="no"?><!DOCTYPE svg PUBLIC "-//W3C//DTD SVG 1.1//EN" "http://www.w3.org/Graphics/SVG/1.1/DTD/svg11.dtd"><svg class="icon" width="64px" height="64.00px" viewBox="0 0 1024 1024" version="1.1" xmlns="http://www.w3.org/2000/svg"><path d="M600.7808 590.6432m-316.2624 0a316.2624 316.2624 0 1 0 632.5248 0 316.2624 316.2624 0 1 0-632.5248 0Z" fill="#F6EEA5" /><path d="M518.2464 50.432c-126.464-1.792-244.992 46.7456-334.0288 136.3968C95.232 276.4288 47.616 395.3664 50.1248 521.7792c2.4064 119.04 50.432 231.3728 135.3216 316.416s197.12 133.3248 316.16 135.936c3.4816 0.1024 6.9632 0.1024 10.4448 0.1024 54.4768 0 107.7248-9.3696 158.5152-27.9552a30.79168 30.79168 0 0 0 18.3296-39.424 30.79168 30.79168 0 0 0-39.424-18.3296c-46.7968 17.1008-96 25.2416-146.5344 24.1152-211.5584-4.6592-387.1232-180.5824-391.3728-392.192-2.2016-109.6192 39.0656-212.7872 116.2752-290.5088 75.8784-76.3904 176.5888-118.272 284.1088-118.272 1.8432 0 3.6352 0 5.4784 0.0512 217.856 2.8672 395.0592 185.1392 395.0592 406.272v46.6944c0 58.9312-47.9744 106.9056-106.9056 106.9056s-106.9056-47.9744-106.9056-106.9056V312.6784c0-16.9472-13.7728-30.72-30.72-30.72s-30.72 13.7728-30.72 30.72v21.6064c-32.6144-32.3072-77.4144-52.3264-126.8224-52.3264-99.3792 0-180.2752 80.8448-180.2752 180.2752v95.1808c0 99.3792 80.8448 180.2752 180.2752 180.2752 64 0 120.32-33.5872 152.32-84.0192 29.7472 47.6672 82.6368 79.4624 142.8992 79.4624 92.8256 0 168.3456-75.52 168.3456-168.3456v-46.6944c0-254.5152-204.4416-464.3328-455.7312-467.6608z m111.0016 506.9824c0 65.536-53.2992 118.8352-118.8352 118.8352s-118.8352-53.2992-118.8352-118.8352V462.2336c0-65.536 53.2992-118.8352 118.8352-118.8352s118.8352 53.2992 118.8352 118.8352v95.1808z" fill="#4F4F4F" /></svg>