<?xml version="1.0" standalone="no"?><!DOCTYPE svg PUBLIC "-//W3C//DTD SVG 1.1//EN" "http://www.w3.org/Graphics/SVG/1.1/DTD/svg11.dtd"><svg class="icon" width="64px" height="64.00px" viewBox="0 0 1024 1024" version="1.1" xmlns="http://www.w3.org/2000/svg"><path d="M607.232 611.2256m-281.4464 0a281.4464 281.4464 0 1 0 562.8928 0 281.4464 281.4464 0 1 0-562.8928 0Z" fill="#A0B8EA" /><path d="M791.552 226.816h-17.664V170.5984c0-62.1056-50.5344-112.64-112.64-112.64H360.0896c-62.1056 0-112.64 50.5344-112.64 112.64V226.816h-17.664c-90.3168 0-163.84 73.5232-163.84 163.84v411.9552c0 90.3168 73.5232 163.84 163.84 163.84H791.552c90.3168 0 163.84-73.5232 163.84-163.84V390.656c0-90.3168-73.5232-163.84-163.84-163.84zM308.8896 170.5984c0-28.2112 22.9888-51.2 51.2-51.2h301.1584c28.2112 0 51.2 22.9888 51.2 51.2V226.816H308.8896V170.5984zM229.7856 288.256H791.552c56.4736 0 102.4 45.9264 102.4 102.4v129.536h-182.0672v-41.728c0-16.9472-13.7728-30.72-30.72-30.72s-30.72 13.7728-30.72 30.72v41.728H362.8544v-41.728c0-16.9472-13.7728-30.72-30.72-30.72s-30.72 13.7728-30.72 30.72v41.728H127.3856V390.656c0-56.4736 45.9264-102.4 102.4-102.4zM791.552 905.0624H229.7856c-56.4736 0-102.4-45.9264-102.4-102.4V581.632h174.0288v71.3216c0 16.9472 13.7728 30.72 30.72 30.72s30.72-13.7728 30.72-30.72V581.632h287.5904v71.3216c0 16.9472 13.7728 30.72 30.72 30.72s30.72-13.7728 30.72-30.72V581.632h182.0672v221.0304c0 56.4224-45.9264 102.4-102.4 102.4z" fill="#4F4F4F" /></svg>