<?xml version="1.0" standalone="no"?><!DOCTYPE svg PUBLIC "-//W3C//DTD SVG 1.1//EN" "http://www.w3.org/Graphics/SVG/1.1/DTD/svg11.dtd"><svg class="icon" width="64px" height="64.00px" viewBox="0 0 1024 1024" version="1.1" xmlns="http://www.w3.org/2000/svg"><path d="M602.2144 645.12m-289.2288 0a289.2288 289.2288 0 1 0 578.4576 0 289.2288 289.2288 0 1 0-578.4576 0Z" fill="#C0E1C6" /><path d="M542.72 112.4864V69.632c0-16.9472-13.7728-30.72-30.72-30.72s-30.72 13.7728-30.72 30.72v43.264c-219.8528 17.0496-393.5744 201.2672-393.5744 425.4208 0 16.9472 13.7728 30.72 30.72 30.72H481.28v275.6608c0 37.9392-30.8736 68.8128-68.8128 68.8128-37.9392 0-68.8128-30.8736-68.8128-68.8128v-2.4576c0-16.9472-13.7728-30.72-30.72-30.72s-30.72 13.7728-30.72 30.72v2.4576c0 71.8336 58.4192 130.2528 130.2528 130.2528S542.72 916.4288 542.72 844.6464v-275.6608h367.872c16.9472 0 30.72-13.7728 30.72-30.72 0-225.8432-176.384-411.1872-398.592-425.7792zM357.2224 507.5456c-1.024-62.208 7.5776-264.704 156.8256-331.8784 140.3904 68.7104 158.1056 268.1344 160.1536 331.8784H357.2224z m31.1296-312.1152C301.056 298.9568 294.6048 449.6384 295.68 507.5456H150.4256c11.9808-143.7696 107.6224-263.9872 237.9264-312.1152z m347.4432 312.1152c-1.3312-56.9856-13.4656-210.2784-102.144-314.7264 133.888 46.2848 232.704 168.3968 244.9408 314.7264h-142.7968z" fill="#4F4F4F" /></svg>