<?xml version="1.0" standalone="no"?><!DOCTYPE svg PUBLIC "-//W3C//DTD SVG 1.1//EN" "http://www.w3.org/Graphics/SVG/1.1/DTD/svg11.dtd"><svg class="icon" width="64px" height="64.00px" viewBox="0 0 1024 1024" version="1.1" xmlns="http://www.w3.org/2000/svg"><path d="M583.2704 558.5408m-289.2288 0a289.2288 289.2288 0 1 0 578.4576 0 289.2288 289.2288 0 1 0-578.4576 0Z" fill="#C7ACEF" /><path d="M515.328 965.2224c-249.9072 0-453.2224-203.3152-453.2224-453.2224s203.3152-453.2224 453.2224-453.2224 453.2224 203.3152 453.2224 453.2224-203.3152 453.2224-453.2224 453.2224z m0-845.0048c-216.0128 0-391.7824 175.7696-391.7824 391.7824s175.7696 391.7824 391.7824 391.7824 391.7824-175.7696 391.7824-391.7824-175.7696-391.7824-391.7824-391.7824z" fill="#4F4F4F" /><path d="M385.8944 409.4976m-53.6064 0a53.6064 53.6064 0 1 0 107.2128 0 53.6064 53.6064 0 1 0-107.2128 0Z" fill="#4F4F4F" /><path d="M636.8768 409.4976m-53.6064 0a53.6064 53.6064 0 1 0 107.2128 0 53.6064 53.6064 0 1 0-107.2128 0Z" fill="#4F4F4F" /><path d="M510.208 708.1984c-122.88 0-183.7568-103.1168-186.3168-107.52a30.72 30.72 0 0 1 53.1456-30.8224c1.9968 3.3792 46.4896 76.9024 133.1712 76.9024 86.784 0 131.328-73.7792 133.1712-76.9024a30.78144 30.78144 0 0 1 41.984-11.008 30.6688 30.6688 0 0 1 11.1616 41.8304c-2.56 4.352-63.488 107.52-186.3168 107.52z" fill="#4F4F4F" /></svg>