<?xml version="1.0" standalone="no"?><!DOCTYPE svg PUBLIC "-//W3C//DTD SVG 1.1//EN" "http://www.w3.org/Graphics/SVG/1.1/DTD/svg11.dtd"><svg class="icon" width="64px" height="64.00px" viewBox="0 0 1024 1024" version="1.1" xmlns="http://www.w3.org/2000/svg"><path d="M634.7776 628.8896m-316.4672 0a316.4672 316.4672 0 1 0 632.9344 0 316.4672 316.4672 0 1 0-632.9344 0Z" fill="#F6EEA5" /><path d="M804.5056 235.9808h-41.3696V166.912c0-62.1056-50.5344-112.64-112.64-112.64H371.2c-62.1056 0-112.64 50.5344-112.64 112.64v69.0688h-37.4784c-90.3168 0-163.84 73.5232-163.84 163.84v184.7296c0 90.3168 73.5232 163.84 163.84 163.84h37.4784v115.0464c0 62.1056 50.5344 112.64 112.64 112.64h279.296c62.1056 0 112.64-50.5344 112.64-112.64v-115.0464h41.3696c90.3168 0 163.84-73.5232 163.84-163.84V399.8208c0-90.368-73.472-163.84-163.84-163.84zM320 166.912c0-28.2112 22.9888-51.2 51.2-51.2h279.296c28.2112 0 51.2 22.9888 51.2 51.2v63.8464H320V166.912z m381.696 696.5248c0 28.2112-22.9888 51.2-51.2 51.2H371.2c-28.2112 0-51.2-22.9888-51.2-51.2v-289.3312c0-28.2112 22.9888-51.2 51.2-51.2h279.296c28.2112 0 51.2 22.9888 51.2 51.2v289.3312z m205.2096-278.8864c0 56.4736-45.9264 102.4-102.4 102.4h-41.3696v-112.8448c0-62.1056-50.5344-112.64-112.64-112.64H371.2c-62.1056 0-112.64 50.5344-112.64 112.64v112.8448h-37.4784c-56.4736 0-102.4-45.9264-102.4-102.4V399.8208c0-56.4736 45.9264-102.4 102.4-102.4h583.4752c56.4736 0 102.4 45.9264 102.4 102.4v184.7296z" fill="#4F4F4F" /><path d="M516.4032 657.8688H414.4128c-16.9472 0-30.72-13.7728-30.72-30.72s13.7728-30.72 30.72-30.72h101.9904c16.9472 0 30.72 13.7728 30.72 30.72s-13.7728 30.72-30.72 30.72z" fill="#4F4F4F" /></svg>