<?xml version="1.0" standalone="no"?><!DOCTYPE svg PUBLIC "-//W3C//DTD SVG 1.1//EN" "http://www.w3.org/Graphics/SVG/1.1/DTD/svg11.dtd"><svg class="icon" width="64px" height="64.00px" viewBox="0 0 1024 1024" version="1.1" xmlns="http://www.w3.org/2000/svg"><path d="M659.8656 594.1248m-281.4464 0a281.4464 281.4464 0 1 0 562.8928 0 281.4464 281.4464 0 1 0-562.8928 0Z" fill="#FED1B0" /><path d="M512 539.8016c-79.7696 0-144.6912-64.9216-144.6912-144.6912S432.2304 250.4192 512 250.4192s144.6912 64.9216 144.6912 144.6912-64.9216 144.6912-144.6912 144.6912z m0-227.9424c-45.9264 0-83.2512 37.376-83.2512 83.2512s37.376 83.2512 83.2512 83.2512 83.2512-37.376 83.2512-83.2512-37.3248-83.2512-83.2512-83.2512z" fill="#4F4F4F" /><path d="M512 841.5232c-6.9632 0-13.9264-2.3552-19.6096-7.1168-206.4384-171.5712-311.1424-319.3344-311.1424-439.296 0-182.3744 148.3776-330.752 330.752-330.752s330.752 148.3776 330.752 330.752c0 112.4352-98.6112 251.8528-310.4256 438.7328-5.7856 5.12-13.056 7.68-20.3264 7.68z m0-715.7248c-148.48 0-269.312 120.7808-269.312 269.312 0 95.7952 92.7744 225.1776 268.6976 375.0912 179.0976-161.1264 269.8752-287.2832 269.8752-375.0912 0.0512-148.48-120.7808-269.312-269.2608-269.312z" fill="#4F4F4F" /><path d="M512 963.9936c-161.792 0-435.6096-27.9552-435.6096-132.7104 0-51.2512 64.1536-89.088 190.72-112.4864 16.6912-3.072 32.7168 7.936 35.7888 24.6272 3.072 16.6912-7.936 32.7168-24.6272 35.7888-101.4784 18.7392-134.912 43.3152-140.0832 52.0192 4.4032 7.2192 30.4128 27.5456 107.1104 45.2096 72.6528 16.7936 167.3728 26.0096 266.7008 26.0096s194.0992-9.216 266.7008-26.0096c76.6976-17.7152 102.7072-37.9904 107.1104-45.2608-5.3248-9.0624-40.6016-34.6624-148.3264-53.504-16.6912-2.9184-27.904-18.8416-24.9856-35.5328 2.9184-16.6912 18.8416-27.904 35.5328-24.9856 132.4544 23.1936 199.5776 61.5424 199.5776 114.0736 0 104.8064-273.8176 132.7616-435.6096 132.7616z m374.3232-131.6352z" fill="#4F4F4F" /></svg>