<?xml version="1.0" standalone="no"?><!DOCTYPE svg PUBLIC "-//W3C//DTD SVG 1.1//EN" "http://www.w3.org/Graphics/SVG/1.1/DTD/svg11.dtd"><svg class="icon" width="64px" height="64.00px" viewBox="0 0 1024 1024" version="1.1" xmlns="http://www.w3.org/2000/svg"><path d="M578.9184 576.6144m-281.4464 0a281.4464 281.4464 0 1 0 562.8928 0 281.4464 281.4464 0 1 0-562.8928 0Z" fill="#F1ACB3" /><path d="M517.12 957.696c-247.1424 0-448.2048-201.0624-448.2048-448.2048S269.9776 61.2864 517.12 61.2864s448.2048 201.0624 448.2048 448.2048-201.0624 448.2048-448.2048 448.2048z m0-834.9184c-213.248 0-386.7648 173.5168-386.7648 386.7648 0 213.248 173.5168 386.7648 386.7648 386.7648s386.7648-173.5168 386.7648-386.7648c0-213.2992-173.5168-386.7648-386.7648-386.7648z" fill="#4F4F4F" /><path d="M360.4992 705.0752c-10.6496 0-21.1456-4.1984-28.928-12.032a40.81152 40.81152 0 0 1-9.0624-43.776l85.3504-216.32c4.096-10.3424 12.288-18.6368 22.5792-22.8352l227.4304-92.6208a40.7552 40.7552 0 0 1 44.2368 8.9088 40.86272 40.86272 0 0 1 9.0112 44.2368l-90.0096 222.1568a40.8576 40.8576 0 0 1-22.9888 22.6816L375.296 702.3104c-4.8128 1.8432-9.8304 2.7648-14.7968 2.7648z m101.2736-241.3568l-64.768 164.1984 170.496-66.4064 68.352-168.6528-174.08 70.8608z" fill="#4F4F4F" /></svg>