<?xml version="1.0" standalone="no"?><!DOCTYPE svg PUBLIC "-//W3C//DTD SVG 1.1//EN" "http://www.w3.org/Graphics/SVG/1.1/DTD/svg11.dtd"><svg class="icon" width="64px" height="64.00px" viewBox="0 0 1024 1024" version="1.1" xmlns="http://www.w3.org/2000/svg"><path d="M638.7712 628.8896m-316.4672 0a316.4672 316.4672 0 1 0 632.9344 0 316.4672 316.4672 0 1 0-632.9344 0Z" fill="#90D4DD" /><path d="M368.6912 468.2752H194.304c-62.1056 0-112.64-50.5344-112.64-112.64V191.5392c0-62.1056 50.5344-112.64 112.64-112.64h174.3872c62.1056 0 112.64 50.5344 112.64 112.64v164.0448c0 62.1568-50.5344 112.6912-112.64 112.6912zM194.304 140.3392c-28.2112 0-51.2 22.9888-51.2 51.2v164.0448c0 28.2112 22.9888 51.2 51.2 51.2h174.3872c28.2112 0 51.2-22.9888 51.2-51.2V191.5392c0-28.2112-22.9888-51.2-51.2-51.2H194.304zM368.6912 943.2576H194.304c-62.1056 0-112.64-50.5344-112.64-112.64v-164.0448c0-62.1056 50.5344-112.64 112.64-112.64h174.3872c62.1056 0 112.64 50.5344 112.64 112.64v164.0448c0 62.1568-50.5344 112.64-112.64 112.64z m-174.3872-327.8848c-28.2112 0-51.2 22.9888-51.2 51.2v164.0448c0 28.2112 22.9888 51.2 51.2 51.2h174.3872c28.2112 0 51.2-22.9888 51.2-51.2v-164.0448c0-28.2112-22.9888-51.2-51.2-51.2H194.304zM840.6016 943.2576h-174.3872c-62.1056 0-112.64-50.5344-112.64-112.64v-164.0448c0-62.1056 50.5344-112.64 112.64-112.64h174.3872c62.1056 0 112.64 50.5344 112.64 112.64v164.0448c0 62.1568-50.4832 112.64-112.64 112.64z m-174.3872-327.8848c-28.2112 0-51.2 22.9888-51.2 51.2v164.0448c0 28.2112 22.9888 51.2 51.2 51.2h174.3872c28.2112 0 51.2-22.9888 51.2-51.2v-164.0448c0-28.2112-22.9888-51.2-51.2-51.2h-174.3872zM753.408 462.1312c-103.936 0-188.5184-84.5824-188.5184-188.5184s84.5824-188.5184 188.5184-188.5184 188.5184 84.5824 188.5184 188.5184-84.5312 188.5184-188.5184 188.5184z m0-315.5968c-70.0928 0-127.0784 56.9856-127.0784 127.0784s56.9856 127.0784 127.0784 127.0784 127.0784-56.9856 127.0784-127.0784-56.9856-127.0784-127.0784-127.0784z" fill="#4F4F4F" /></svg>