<?xml version="1.0" standalone="no"?><!DOCTYPE svg PUBLIC "-//W3C//DTD SVG 1.1//EN" "http://www.w3.org/Graphics/SVG/1.1/DTD/svg11.dtd"><svg class="icon" width="64px" height="64.00px" viewBox="0 0 1024 1024" version="1.1" xmlns="http://www.w3.org/2000/svg"><path d="M662.1696 704.8192m-281.4464 0a281.4464 281.4464 0 1 0 562.8928 0 281.4464 281.4464 0 1 0-562.8928 0Z" fill="#FED1B0" /><path d="M773.5296 674.0992c-42.8032 0-81.2032 19.0464-107.264 49.1008l-260.3008-156.4672c6.2464-17.0496 9.6768-35.4816 9.6768-54.6816 0-17.152-2.7648-33.6896-7.8336-49.2032l265.6256-165.2736c25.7024 25.5488 61.0816 41.3696 100.1472 41.3696 78.336 0 142.08-63.744 142.08-142.08S851.8656 54.784 773.5296 54.784s-142.08 63.744-142.08 142.08c0 17.2032 3.072 33.6896 8.704 48.9984l-262.4 163.328c-29.184-34.3552-72.704-56.2176-121.2416-56.2176-87.7056 0-159.1296 71.3728-159.1296 159.0784s71.3728 159.0784 159.1296 159.0784c46.4896 0 88.3712-20.0192 117.4528-51.9168l262.912 158.0544c-3.5328 12.3904-5.4784 25.3952-5.4784 38.912 0 78.336 63.744 142.08 142.08 142.08s142.08-63.744 142.08-142.08-63.6928-142.08-142.0288-142.08z m0-557.8752c44.4416 0 80.64 36.1472 80.64 80.64s-36.1472 80.64-80.64 80.64-80.64-36.1472-80.64-80.64 36.1472-80.64 80.64-80.64zM256.512 609.6384c-53.8624 0-97.6896-43.8272-97.6896-97.6384s43.8272-97.6384 97.6896-97.6384c53.8624 0 97.6384 43.8272 97.6384 97.6384s-43.776 97.6384-97.6384 97.6384z m517.0176 287.1296c-44.4416 0-80.64-36.1472-80.64-80.64s36.1472-80.64 80.64-80.64 80.64 36.1472 80.64 80.64-36.1984 80.64-80.64 80.64z" fill="#4F4F4F" /></svg>