<?xml version="1.0" standalone="no"?><!DOCTYPE svg PUBLIC "-//W3C//DTD SVG 1.1//EN" "http://www.w3.org/Graphics/SVG/1.1/DTD/svg11.dtd"><svg class="icon" width="64px" height="64.00px" viewBox="0 0 1024 1024" version="1.1" xmlns="http://www.w3.org/2000/svg"><path d="M602.0096 637.5936m-296.4992 0a296.4992 296.4992 0 1 0 592.9984 0 296.4992 296.4992 0 1 0-592.9984 0Z" fill="#FED1B0" /><path d="M374.0672 964.8128c-1.8944 0-3.7376 0-5.632-0.0512-79.7184-1.4848-153.5488-34.4576-207.9232-92.7744-52.0192-55.808-79.7696-128.5632-78.1824-204.8 1.5872-76.288 32.3584-147.8144 86.6304-201.4208l364.6976-360.192c42.24-41.1648 97.6384-63.3344 156.5184-62.0544 58.7776 1.1264 113.408 25.1904 153.9072 67.7888 40.2944 42.3424 61.5424 97.8944 59.9552 156.3136-1.6384 58.4192-25.9584 112.6912-68.5568 152.7296l-369.7152 347.904c-26.5216 24.9344-61.1328 37.9904-97.536 36.352-36.4032-1.536-69.8368-17.3056-94.1568-44.3904-47.7184-53.0944-45.5168-134.1952 5.0688-184.6272l298.1888-297.4208a30.77632 30.77632 0 0 1 43.4688 0.0512 30.77632 30.77632 0 0 1-0.0512 43.4688L322.56 619.1104c-27.392 27.3408-28.6208 71.2704-2.7648 100.0448 13.2096 14.6944 31.3344 23.2448 51.0464 24.064 19.8144 0.8704 38.5024-6.144 52.8896-19.712l369.7152-347.904c30.5664-28.7744 48.0768-67.7376 49.2544-109.7216 1.1776-41.984-14.1312-81.8688-43.0592-112.2816-29.0816-30.6176-68.352-47.872-110.5408-48.6912-42.3936-0.9728-82.1248 15.0016-112.3328 44.4928L212.1216 509.44c-89.1904 88.064-92.1088 228.9152-6.656 320.6656 42.9056 46.0288 101.1712 72.0384 164.096 73.216 1.4848 0 2.9696 0.0512 4.4544 0.0512 61.2864 0 118.7328-23.7056 162.304-67.072l332.2368-330.9056a30.73024 30.73024 0 0 1 43.4688 0.1024 30.73024 30.73024 0 0 1-0.1024 43.4688l-332.2368 330.9056c-55.1936 54.8864-128 84.9408-205.6192 84.9408z" fill="#4F4F4F" /></svg>