<?xml version="1.0" standalone="no"?><!DOCTYPE svg PUBLIC "-//W3C//DTD SVG 1.1//EN" "http://www.w3.org/Graphics/SVG/1.1/DTD/svg11.dtd"><svg class="icon" width="64px" height="64.00px" viewBox="0 0 1024 1024" version="1.1" xmlns="http://www.w3.org/2000/svg"><path d="M577.2288 575.2832m-281.4464 0a281.4464 281.4464 0 1 0 562.8928 0 281.4464 281.4464 0 1 0-562.8928 0Z" fill="#FED1B0" /><path d="M513.1264 959.1296c-247.1424 0-448.2048-201.0624-448.2048-448.2048s201.0624-448.2048 448.2048-448.2048 448.2048 201.0624 448.2048 448.2048-201.0624 448.2048-448.2048 448.2048z m0-834.9696c-213.248 0-386.7648 173.5168-386.7648 386.7648 0 213.248 173.5168 386.7648 386.7648 386.7648 213.248 0 386.7648-173.5168 386.7648-386.7648 0-213.2992-173.5168-386.7648-386.7648-386.7648z" fill="#4F4F4F" /><path d="M631.296 532.48h-97.6896V481.1776h97.6896c16.9472 0 30.72-13.7728 30.72-30.72s-13.7728-30.72-30.72-30.72h-54.0672l72.3968-67.7376a30.68416 30.68416 0 0 0 1.4336-43.4176c-11.5712-12.3904-31.0272-13.0048-43.4176-1.4336L503.5008 404.5824 412.8256 308.48a30.73024 30.73024 0 0 0-43.4176-1.28 30.73024 30.73024 0 0 0-1.28 43.4176l65.1776 69.12h-58.88c-16.9472 0-30.72 13.7728-30.72 30.72s13.7728 30.72 30.72 30.72h97.6896V532.48H374.4256c-16.9472 0-30.72 13.7728-30.72 30.72s13.7728 30.72 30.72 30.72h97.6896v104.9088c0 16.9472 13.7728 30.72 30.72 30.72s30.72-13.7728 30.72-30.72V593.92h97.6896c16.9472 0 30.72-13.7728 30.72-30.72s-13.6704-30.72-30.6688-30.72z" fill="#4F4F4F" /></svg>