<?xml version="1.0" standalone="no"?><!DOCTYPE svg PUBLIC "-//W3C//DTD SVG 1.1//EN" "http://www.w3.org/Graphics/SVG/1.1/DTD/svg11.dtd"><svg t="1625144789454" class="icon" viewBox="0 0 1024 1024" version="1.1" xmlns="http://www.w3.org/2000/svg" p-id="20321" xmlns:xlink="http://www.w3.org/1999/xlink" width="64" height="64"><defs><style type="text/css">@font-face { font-family: element-icons; src: url("chrome-extension://moombeodfomdpjnpocobemoiaemednkg/fonts/element-icons.woff") format("woff"), url("chrome-extension://moombeodfomdpjnpocobemoiaemednkg/fonts/element-icons.ttf ") format("truetype"); }
</style></defs><path d="M606.9248 547.9936m-212.7872 0a212.7872 212.7872 0 1 0 425.5744 0 212.7872 212.7872 0 1 0-425.5744 0Z" fill="#FF8080" p-id="20322"></path><path d="M512 918.0672c-208.3328 0-377.856-169.5232-377.856-377.856 0-139.776 76.6464-267.5712 200.0384-333.4656 12.4928-6.656 28.0064-1.9456 34.6624 10.496a25.6512 25.6512 0 0 1-10.496 34.6624C251.5968 308.8896 185.344 419.3792 185.344 540.2112c0 180.1216 146.5344 326.656 326.656 326.656 124.7232 0 240.2816-72.6528 294.4512-185.0368a25.56416 25.56416 0 0 1 34.1504-11.9296 25.56416 25.56416 0 0 1 11.9296 34.1504c-62.6176 130.048-196.3008 214.016-340.5312 214.016z" fill="#512C56" p-id="20323"></path><path d="M876.1856 568.4224H497.5616c-14.1312 0-25.6-11.4688-25.6-25.6V163.1744c0-6.8608 2.7648-13.4656 7.68-18.2784s11.52-7.7312 18.3808-7.3216c3.6864 0.0512 91.9552 2.1504 185.9584 52.6848 87.2448 46.848 195.7888 145.6128 217.6512 349.8496a25.4976 25.4976 0 0 1-6.4 19.8144 25.53856 25.53856 0 0 1-19.0464 8.4992z m-353.024-51.2h323.84c-20.48-130.56-82.7904-225.024-185.4976-280.8832-54.5792-29.696-107.8784-40.8576-138.3424-45.056v325.9392z" fill="#512C56" p-id="20324"></path></svg>