<?xml version="1.0" standalone="no"?><!DOCTYPE svg PUBLIC "-//W3C//DTD SVG 1.1//EN" "http://www.w3.org/Graphics/SVG/1.1/DTD/svg11.dtd"><svg class="icon" width="64px" height="64.00px" viewBox="0 0 1024 1024" version="1.1" xmlns="http://www.w3.org/2000/svg"><path d="M655.8208 623.5648m-289.2288 0a289.2288 289.2288 0 1 0 578.4576 0 289.2288 289.2288 0 1 0-578.4576 0Z" fill="#FED1B0" /><path d="M750.1824 492.4928H479.5904c-16.9472 0-30.72-13.7728-30.72-30.72s13.7728-30.72 30.72-30.72h270.592c16.9472 0 30.72 13.7728 30.72 30.72s-13.7728 30.72-30.72 30.72z" fill="#4F4F4F" /><path d="M966.3488 338.4832c4.352-20.5824-0.7168-41.7792-13.9776-58.1632a69.26848 69.26848 0 0 0-53.9648-25.7536H309.9648L300.544 175.4624l-0.3072-2.0992c-7.4752-39.3216-41.9328-67.84-81.92-67.84H96.1024c-16.9472 0-30.72 13.7728-30.72 30.72s13.7728 30.72 30.72 30.72h122.2144c10.24 0 19.0976 7.1168 21.4016 17.0496l60.16 505.1904 0.3072 2.0992c1.5872 8.448 4.5056 16.3328 8.3968 23.6032-40.0384 17.408-68.1472 57.344-68.1472 103.7312 0 62.3616 50.7392 113.0496 113.0496 113.0496s113.0496-50.7392 113.0496-113.0496c0-21.8112-6.2464-42.1888-16.9472-59.4944h296.3456c-10.752 17.3056-16.9472 37.6832-16.9472 59.4944 0 62.3616 50.7392 113.0496 113.0496 113.0496s113.0496-50.7392 113.0496-113.0496c0-47.6672-29.6448-88.4736-71.424-105.1136 3.2768-6.3488 5.7344-13.2096 7.2704-20.4288l75.4176-354.6112z m-67.8912-22.4768c3.1744 0 5.12 1.6384 6.2464 2.9696 1.0752 1.3312 2.2528 3.6352 1.5872 6.7072l-75.3152 354.6624a22.05696 22.05696 0 0 1-21.4528 17.408H382.1056a22.016 22.016 0 0 1-21.4016-17.0496l-43.4176-364.6976h581.1712zM353.536 870.2976c-28.4672 0-51.6096-23.1424-51.6096-51.6096s23.1424-51.6096 51.6096-51.6096 51.6096 23.1424 51.6096 51.6096-23.1424 51.6096-51.6096 51.6096z m488.6016 0c-28.4672 0-51.6096-23.1424-51.6096-51.6096s23.1424-51.6096 51.6096-51.6096 51.6096 23.1424 51.6096 51.6096-23.1424 51.6096-51.6096 51.6096z" fill="#4F4F4F" /></svg>