<?xml version="1.0" standalone="no"?><!DOCTYPE svg PUBLIC "-//W3C//DTD SVG 1.1//EN" "http://www.w3.org/Graphics/SVG/1.1/DTD/svg11.dtd"><svg class="icon" width="64px" height="64.00px" viewBox="0 0 1024 1024" version="1.1" xmlns="http://www.w3.org/2000/svg"><path d="M639.0784 561.92m-281.4464 0a281.4464 281.4464 0 1 0 562.8928 0 281.4464 281.4464 0 1 0-562.8928 0Z" fill="#FED1B0" /><path d="M893.2864 196.7616h-88.4736V116.6848c0-16.9472-13.7728-30.72-30.72-30.72H260.352c-16.9472 0-30.72 13.7728-30.72 30.72v80.0768H134.8608c-34.7648 0-63.0784 28.3136-63.0784 63.0784V357.888c0 117.4528 92.5184 213.7088 208.5376 219.648 45.4656 65.9456 117.76 112.0256 200.96 122.4704v171.264H297.0624c-16.9472 0-30.72 13.7728-30.72 30.72s13.7728 30.72 30.72 30.72h434.8928c16.9472 0 30.72-13.7728 30.72-30.72s-13.7728-30.72-30.72-30.72H542.72v-170.1376c87.8592-7.7312 164.4544-55.1424 211.8144-124.16 112.7424-9.2672 201.8304-104.192 201.8304-219.136V259.7888c0-34.7648-28.3136-63.0272-63.0784-63.0272zM245.7088 509.5424c-65.024-19.7632-112.4352-80.2816-112.4352-151.7056V259.7888c0-0.9216 0.7168-1.6384 1.6384-1.6384h94.7712V414.72c0 4.5056 0.1536 9.0624 0.3584 13.568 0.0512 1.5872 0.2048 3.1744 0.3072 4.8128 0.2048 2.8672 0.4096 5.6832 0.6656 8.5504l0.6144 5.7344c0.3072 2.5088 0.6144 5.0176 0.9728 7.4752 0.3072 1.9968 0.5632 3.9936 0.8704 5.9904 0.4096 2.4576 0.8704 4.9152 1.3312 7.3728l1.0752 5.7344c0.7168 3.3792 1.4848 6.7584 2.3552 10.0864 0.3584 1.4848 0.7168 2.9696 1.1264 4.4544 0.9728 3.6352 1.9968 7.2192 3.072 10.8032 0.3584 1.2288 0.768 2.4064 1.1776 3.6352 0.6144 2.1504 1.28 4.4032 2.0992 6.6048z m271.5136 131.328c-84.4288 0-158.208-46.5408-197.0176-115.3024-0.8192-1.4848-1.6896-2.9696-2.4576-4.4544-1.1776-2.2016-2.304-4.4032-3.3792-6.6048-0.9728-1.9968-1.9456-4.0448-2.8672-6.0416-0.8704-1.8944-1.7408-3.7376-2.56-5.632-1.5872-3.7888-3.072-7.6288-4.5056-11.52-0.512-1.4848-1.024-2.9696-1.4848-4.4032-1.024-3.0208-1.9968-6.0928-2.8672-9.1648-0.4096-1.3312-0.768-2.6624-1.1264-4.0448a219.1872 219.1872 0 0 1-5.5296-26.9824l-0.4608-3.5328c-0.4608-3.5328-0.8192-7.1168-1.0752-10.6496l-0.3072-3.7888c-0.3072-4.6592-0.4608-9.2672-0.4608-13.9264V147.4048h452.3008V414.72c0 4.6592-0.2048 9.3184-0.4608 13.9776l-0.3072 3.7888c-0.256 3.584-0.6656 7.168-1.0752 10.7008-0.1536 1.1264-0.256 2.304-0.4608 3.4304-1.28 9.1648-3.1744 18.176-5.5808 27.0848-0.3584 1.28-0.7168 2.56-1.0752 3.7888-0.9216 3.1744-1.9456 6.3488-2.9696 9.472l-1.3824 4.1472c-1.4336 3.9424-2.9184 7.8336-4.5568 11.6736-0.768 1.7408-1.5872 3.4816-2.3552 5.2224-0.9728 2.2016-1.9968 4.352-3.072 6.5024-1.0752 2.1504-2.1504 4.2496-3.2768 6.3488-0.8704 1.6384-1.792 3.2768-2.7136 4.864-38.912 68.7104-112.5888 115.1488-196.9152 115.1488z m377.7024-283.0336c0 68.608-44.032 127.3344-105.3184 149.2992 0.512-1.4848 0.9216-2.9184 1.3824-4.4032 0.4608-1.4848 0.9728-2.9184 1.3824-4.4032 0.8192-2.7136 1.5872-5.4784 2.3552-8.2432 0.4096-1.536 0.8704-3.072 1.28-4.6592 1.024-3.9936 1.9456-8.0384 2.816-12.0832 0.3072-1.536 0.5632-3.1232 0.8704-4.7104 0.512-2.7648 1.024-5.5808 1.4848-8.3456 0.3072-1.8432 0.5632-3.7376 0.8192-5.632 0.3584-2.56 0.7168-5.1712 0.9728-7.7312 0.2048-1.8432 0.4096-3.6864 0.5632-5.4784 0.256-2.8672 0.4608-5.7344 0.6656-8.6016l0.3072-4.6592c0.2048-4.4544 0.3584-8.96 0.3584-13.4144V258.2016h88.4736c0.9216 0 1.6384 0.7168 1.6384 1.6384v97.9968z" fill="#4F4F4F" /></svg>