<?xml version="1.0" standalone="no"?><!DOCTYPE svg PUBLIC "-//W3C//DTD SVG 1.1//EN" "http://www.w3.org/Graphics/SVG/1.1/DTD/svg11.dtd"><svg class="icon" width="64px" height="64.00px" viewBox="0 0 1024 1024" version="1.1" xmlns="http://www.w3.org/2000/svg"><path d="M560.3328 571.6992m-316.4672 0a316.4672 316.4672 0 1 0 632.9344 0 316.4672 316.4672 0 1 0-632.9344 0Z" fill="#F1ACB3" /><path d="M516.1472 986.2144c-247.9104 0-449.5872-201.6768-449.5872-449.5872 0-171.9808 95.744-326.3488 249.856-402.8928a30.71488 30.71488 0 0 1 41.1648 13.8752c7.5264 15.2064 1.3312 33.6384-13.8752 41.1648C210.688 254.8736 128 388.1472 128 536.6272c0 214.016 174.1312 388.1472 388.1472 388.1472 214.016 0 388.1472-174.1312 388.1472-388.1472 0-149.0432-83.1488-282.5728-216.9344-348.4672-15.2064-7.4752-21.504-25.9072-13.9776-41.1136 7.4752-15.2064 25.9072-21.504 41.1136-13.9776 154.9824 76.288 251.2384 230.912 251.2384 403.5584 0 247.9104-201.6768 449.5872-449.5872 449.5872z" fill="#4F4F4F" /><path d="M516.1472 556.2368c-16.9472 0-30.72-13.7728-30.72-30.72v-453.632c0-16.9472 13.7728-30.72 30.72-30.72s30.72 13.7728 30.72 30.72v453.632c0 16.9984-13.7728 30.72-30.72 30.72z" fill="#4F4F4F" /></svg>