<?xml version="1.0" standalone="no"?><!DOCTYPE svg PUBLIC "-//W3C//DTD SVG 1.1//EN" "http://www.w3.org/Graphics/SVG/1.1/DTD/svg11.dtd"><svg class="icon" width="64px" height="64.00px" viewBox="0 0 1024 1024" version="1.1" xmlns="http://www.w3.org/2000/svg"><path d="M603.7504 626.432m-281.4464 0a281.4464 281.4464 0 1 0 562.8928 0 281.4464 281.4464 0 1 0-562.8928 0Z" fill="#F1ACB3" /><path d="M768.8704 67.2256H260.0448c-90.3168 0-163.84 73.5232-163.84 163.84v565.3504c0 90.3168 73.5232 163.84 163.84 163.84h508.8256c90.3168 0 163.84-73.5232 163.84-163.84V231.0656c0-90.3168-73.472-163.84-163.84-163.84z m-508.8256 61.44h508.8256c56.4736 0 102.4 45.9264 102.4 102.4v29.8496l-214.8352 97.6384c-30.0032-48.384-83.5584-80.64-144.5376-80.64-60.2624 0-113.2544 31.5392-143.4624 78.9504L157.6448 259.4304v-28.3648c0-56.4736 45.9264-102.4 102.4-102.4z m360.448 319.232c0 59.8528-48.6912 108.544-108.544 108.544s-108.544-48.6912-108.544-108.544 48.6912-108.544 108.544-108.544 108.544 48.6912 108.544 108.544z m148.3776 450.9184H260.0448c-56.4736 0-102.4-45.9264-102.4-102.4V327.1168l187.6992 86.7328c-2.2528 11.008-3.4304 22.3744-3.4304 34.048 0 93.7472 76.2368 169.984 169.984 169.984s169.984-76.2368 169.984-169.984c0-10.9568-1.0752-21.6576-3.072-32.0512l192.4608-87.4496v468.0192c0 56.4736-45.9264 102.4-102.4 102.4z" fill="#4F4F4F" /></svg>