<?xml version="1.0" standalone="no"?><!DOCTYPE svg PUBLIC "-//W3C//DTD SVG 1.1//EN" "http://www.w3.org/Graphics/SVG/1.1/DTD/svg11.dtd"><svg class="icon" width="64px" height="64.00px" viewBox="0 0 1024 1024" version="1.1" xmlns="http://www.w3.org/2000/svg"><path d="M625.5104 560.1792m-281.4464 0a281.4464 281.4464 0 1 0 562.8928 0 281.4464 281.4464 0 1 0-562.8928 0Z" fill="#FED1B0" /><path d="M514.8672 934.8096c-34.6624 0-67.1744-13.6192-91.4432-38.3488l-324.4544-330.3424C39.2704 505.344 31.0272 410.3168 79.2576 340.1728L203.264 159.8464a178.21696 178.21696 0 0 1 146.8928-77.2608h324.1472c57.8048 0 112.2304 28.16 145.6128 75.3664l128.2048 181.4528c49.7664 70.4512 42.0352 166.2464-18.432 227.7888l-323.328 329.216c-24.32 24.7808-56.832 38.4-91.4944 38.4zM350.1568 144.0256c-38.4512 0-74.4448 18.944-96.256 50.6368L129.8944 374.9888c-31.6416 45.9776-26.1632 108.2368 12.9024 148.0704l324.4544 330.3424c12.6464 12.9024 29.5424 19.968 47.616 19.968 18.0736 0 34.9696-7.1168 47.616-19.968l323.328-329.216a116.77696 116.77696 0 0 0 12.0832-149.2992l-128.2048-181.4528a117.03808 117.03808 0 0 0-95.3856-49.408H350.1568zM104.5504 357.5808z" fill="#4F4F4F" /><path d="M515.8912 646.0928c-17.2032 0-32.8192-8.7552-41.7792-23.5008L340.3264 402.688a30.70976 30.70976 0 0 1 52.48-31.8976l122.9312 202.0864 119.8592-201.8304a30.71488 30.71488 0 1 1 52.8384 31.3344l-130.5088 219.8016a48.52736 48.52736 0 0 1-41.7792 23.9104h-0.256z" fill="#4F4F4F" /></svg>