<?xml version="1.0" standalone="no"?><!DOCTYPE svg PUBLIC "-//W3C//DTD SVG 1.1//EN" "http://www.w3.org/Graphics/SVG/1.1/DTD/svg11.dtd"><svg class="icon" width="64px" height="64.00px" viewBox="0 0 1024 1024" version="1.1" xmlns="http://www.w3.org/2000/svg"><path d="M675.4816 628.8384m-281.4464 0a281.4464 281.4464 0 1 0 562.8928 0 281.4464 281.4464 0 1 0-562.8928 0Z" fill="#FED1B0" /><path d="M950.2208 94.72a30.73536 30.73536 0 0 0-27.4432-24.3712c-12.032-1.0752-295.936-22.784-506.0608 194.56-22.3744 23.1424-41.9328 44.4928-59.136 64.2048l-169.472-6.8608a30.6688 30.6688 0 0 0-29.7472 19.2512L69.12 564.0704c-4.1984 10.4448-2.304 22.3744 4.864 31.0272a30.67904 30.67904 0 0 0 23.6544 11.1104c1.9456 0 3.9424-0.2048 5.9392-0.5632l147.712-29.1328 199.1168 199.1168-27.5968 139.8272c-2.2016 11.0592 1.8432 22.4256 10.5472 29.5936 5.5808 4.6592 12.544 7.0656 19.6096 7.0656 3.84 0 7.7312-0.7168 11.4176-2.2016l222.5664-89.2416a30.64832 30.64832 0 0 0 19.2512-29.7472l-6.8096-167.3216c59.5456-50.688 119.9616-117.2992 162.8672-201.6256 115.3536-226.6112 89.1392-361.6256 87.9616-367.2576zM207.2576 384.512l101.3248 4.096c-1.3312 1.7408-2.56 3.4304-3.8912 5.12-0.0512 0.0512-0.0512 0.1024-0.1024 0.1536-8.3456 11.008-15.7184 21.2992-22.272 30.8224-0.6144 0.9216-1.2288 1.8432-1.8432 2.7136-1.1776 1.6896-2.304 3.3792-3.4304 5.0688-0.8704 1.3312-1.7408 2.6112-2.6112 3.8912-0.8704 1.28-1.7408 2.6112-2.56 3.8912-1.6384 2.56-3.2256 5.0176-4.7616 7.424l-1.0752 1.6896c-1.3312 2.0992-2.56 4.1472-3.7888 6.144l-0.9216 1.536c-1.3312 2.2528-2.6624 4.4032-3.8912 6.5536-0.1024 0.1536-0.2048 0.3072-0.256 0.4608-11.5712 19.8144-18.5856 34.6112-23.3984 44.9024-1.0752 2.304-2.1504 4.5568-3.072 6.4512-0.0512 0.1024-0.1024 0.2048-0.1536 0.256-0.4608 0.8704-0.8192 1.6896-1.2288 2.4064l-82.2272 16.2304L207.2576 384.512z m436.6336 427.2128l-149.9136 60.1088 17.2032-87.3472c25.1392-11.5712 73.472-35.9424 128.512-74.7008l4.1984 101.9392z m163.6352-377.6c-87.6544 172.1856-262.2464 266.1376-318.8224 292.9664L291.84 530.2272c1.0752-2.304 2.2528-4.7104 3.5328-7.3216l0.4608-0.9216c0.512-1.0752 1.0752-2.1504 1.6384-3.2768 11.008-21.7088 30.0032-54.7328 67.2256-102.0928 0.6656-0.8704 1.3312-1.6896 2.048-2.56 1.792-2.2528 3.584-4.5056 5.4272-6.8096 2.7648-3.3792 5.5808-6.8608 8.4992-10.3936 0.9728-1.1776 1.9456-2.3552 2.9184-3.4816 3.5328-4.1984 7.1168-8.4992 10.9056-12.9024l0.0512-0.0512c18.5856-21.76 40.5504-45.9264 66.4064-72.704 154.8288-160.0512 359.936-176.2304 431.104-176.6912 1.024 44.7488-6.912 150.5792-84.5312 303.104z" fill="#4F4F4F" /><path d="M702.208 221.9008c-51.5584 0-93.44 41.9328-93.44 93.44 0 51.5584 41.9328 93.4912 93.44 93.4912 51.5584 0 93.4912-41.9328 93.4912-93.4912-0.0512-51.5072-41.9328-93.44-93.4912-93.44z m0 125.4912c-17.664 0-32-14.3872-32-32.0512 0-17.664 14.3872-32 32-32s32.0512 14.3872 32.0512 32c-0.0512 17.664-14.3872 32.0512-32.0512 32.0512zM354.6624 745.3696c-15.5648-6.6048-33.5872 0.6656-40.2432 16.2304-4.1984 9.728-41.216 88.9344-130.0992 77.4656-3.9936-88.7296 78.6432-126.8224 82.5344-128.5632a30.7456 30.7456 0 0 0-24.6784-56.32c-49.7664 21.6576-138.0352 94.72-116.0192 216.0128a30.80192 30.80192 0 0 0 22.3744 24.2176c18.8416 5.0176 36.5568 7.2192 53.0944 7.2192 94.0032 0 150.784-71.7824 169.3696-116.224 6.6048-15.5648-0.768-33.4336-16.3328-40.0384z" fill="#4F4F4F" /></svg>