<?xml version="1.0" standalone="no"?><!DOCTYPE svg PUBLIC "-//W3C//DTD SVG 1.1//EN" "http://www.w3.org/Graphics/SVG/1.1/DTD/svg11.dtd"><svg class="icon" width="64px" height="64.00px" viewBox="0 0 1024 1024" version="1.1" xmlns="http://www.w3.org/2000/svg"><path d="M653.5168 621.4656m-281.4464 0a281.4464 281.4464 0 1 0 562.8928 0 281.4464 281.4464 0 1 0-562.8928 0Z" fill="#F6EEA5" /><path d="M513.7408 791.3472c-69.888 0-126.7712-56.8832-126.7712-126.7712s56.8832-126.7712 126.7712-126.7712c69.888 0 126.7712 56.8832 126.7712 126.7712s-56.8832 126.7712-126.7712 126.7712z m0-192.0512c-35.9936 0-65.3312 29.2864-65.3312 65.3312s29.2864 65.3312 65.3312 65.3312c35.9936 0 65.3312-29.2864 65.3312-65.3312s-29.3376-65.3312-65.3312-65.3312z" fill="#4F4F4F" /><path d="M785.0496 355.7888H332.0832V289.792c0-100.1472 81.5104-181.6576 181.6576-181.6576 92.5696 0 170.1888 69.2736 180.48 161.0752a30.72 30.72 0 0 0 33.9456 27.0848 30.72 30.72 0 0 0 27.0848-33.9456c-13.824-122.9312-117.6576-215.7056-241.5616-215.7056-134.0416 0-243.0976 109.056-243.0976 243.0976v65.9968h-28.2112c-90.3168 0-163.84 73.5232-163.84 163.84v289.8944c0 90.3168 73.5232 163.84 163.84 163.84h542.6176c90.3168 0 163.84-73.5232 163.84-163.84v-289.8944c0.0512-90.2656-73.472-163.7888-163.7888-163.7888z m102.4 453.7344c0 56.4736-45.9264 102.4-102.4 102.4H242.432c-56.4736 0-102.4-45.9264-102.4-102.4v-289.8944c0-56.4736 45.9264-102.4 102.4-102.4h542.6176c56.4736 0 102.4 45.9264 102.4 102.4v289.8944z" fill="#4F4F4F" /></svg>