<?xml version="1.0" standalone="no"?><!DOCTYPE svg PUBLIC "-//W3C//DTD SVG 1.1//EN" "http://www.w3.org/Graphics/SVG/1.1/DTD/svg11.dtd"><svg class="icon" width="64px" height="64.00px" viewBox="0 0 1024 1024" version="1.1" xmlns="http://www.w3.org/2000/svg"><path d="M621.2096 597.0432m-287.6928 0a287.6928 287.6928 0 1 0 575.3856 0 287.6928 287.6928 0 1 0-575.3856 0Z" fill="#FED1B0" /><path d="M419.2768 936.2944c-16.9472 0-30.72-13.7728-30.72-30.72v-256.9728c0-16.9472 13.7728-30.72 30.72-30.72s30.72 13.7728 30.72 30.72v256.9728c0 16.9984-13.7728 30.72-30.72 30.72z" fill="#4F4F4F" /><path d="M621.2096 963.4304H215.3472c-16.9472 0-30.72-13.7728-30.72-30.72s13.7728-30.72 30.72-30.72h405.9136c16.9472 0 30.72 13.7728 30.72 30.72s-13.7728 30.72-30.7712 30.72zM717.6192 57.856c-102.0928 0-189.5424 75.0592-206.7456 173.9776H152.2176c-19.5072 0-36.9664 10.8544-45.6192 28.3136a50.57536 50.57536 0 0 0 5.1712 53.4528l283.0848 371.2c5.7856 7.6288 14.848 12.0832 24.4224 12.0832s18.6368-4.4544 24.4224-12.0832l176.4864-231.424c29.952 15.7184 63.3856 24.064 97.4848 24.064 115.712 0 209.8176-94.1056 209.8176-209.8176 0-115.6608-94.1568-209.7664-209.8688-209.7664zM419.2768 615.5776L173.4656 293.2736h491.5712l-245.76 322.304z m298.3424-199.5264c-20.5824 0-40.8064-4.3008-59.4432-12.4416l68.608-89.9584c11.8272-15.5136 13.824-35.9936 5.1712-53.4528a50.59584 50.59584 0 0 0-45.6192-28.3136h-112.64c16.2304-64.7168 75.4176-112.5376 143.9744-112.5376 81.8176 0 148.3776 66.56 148.3776 148.3776 0 81.7664-66.6112 148.3264-148.4288 148.3264z" fill="#4F4F4F" /></svg>