<?xml version="1.0" standalone="no"?><!DOCTYPE svg PUBLIC "-//W3C//DTD SVG 1.1//EN" "http://www.w3.org/Graphics/SVG/1.1/DTD/svg11.dtd"><svg class="icon" width="64px" height="64.00px" viewBox="0 0 1024 1024" version="1.1" xmlns="http://www.w3.org/2000/svg"><path d="M585.0624 558.2336m-281.4464 0a281.4464 281.4464 0 1 0 562.8928 0 281.4464 281.4464 0 1 0-562.8928 0Z" fill="#C7ACEF" /><path d="M622.7968 520.448m-37.7344 0a37.7344 37.7344 0 1 0 75.4688 0 37.7344 37.7344 0 1 0-75.4688 0Z" fill="#4F4F4F" /><path d="M872.8064 329.9328h-15.36v-13.2096c0-90.368-73.5232-163.84-163.84-163.84H226.4576c-90.3168 0-163.84 73.472-163.84 163.84v407.5008c0 90.3168 73.5232 163.84 163.84 163.84h467.0976c90.3168 0 163.84-73.5232 163.84-163.84v-13.2096h15.36c52.0704 0 94.464-42.3936 94.464-94.464V424.3968c0-52.0704-42.3424-94.464-94.4128-94.464z m-76.8 394.2912c0 56.4736-45.9264 102.4-102.4 102.4H226.4576c-56.4736 0-102.4-45.9264-102.4-102.4V316.7232c0-56.4736 45.9264-102.4 102.4-102.4h467.0976c56.4736 0 102.4 45.9264 102.4 102.4v13.2096h-166.912c-105.0624 0-190.5152 85.4528-190.5152 190.5152s85.4528 190.5152 190.5152 190.5152h166.912v13.2608z m109.7728-107.6736c0 18.176-14.7968 33.024-33.024 33.024h-243.712c-71.168 0-129.0752-57.9072-129.0752-129.0752s57.9072-129.0752 129.0752-129.0752h243.712c18.176 0 33.024 14.7968 33.024 33.024v192.1024z" fill="#4F4F4F" /></svg>