<?xml version="1.0" standalone="no"?><!DOCTYPE svg PUBLIC "-//W3C//DTD SVG 1.1//EN" "http://www.w3.org/Graphics/SVG/1.1/DTD/svg11.dtd"><svg class="icon" width="64px" height="64.00px" viewBox="0 0 1024 1024" version="1.1" xmlns="http://www.w3.org/2000/svg"><path d="M611.7888 620.1856m-281.4464 0a281.4464 281.4464 0 1 0 562.8928 0 281.4464 281.4464 0 1 0-562.8928 0Z" fill="#A0B8EA" /><path d="M522.0864 89.9584c-239.0528 0-433.5104 194.4576-433.5104 433.5104V856.32c0 41.9328 34.0992 75.9808 75.9808 75.9808h111.104c41.9328 0 75.9808-34.0992 75.9808-75.9808v-228.4032c0-41.8816-34.0992-75.9808-75.9808-75.9808H150.016v-28.4672c0-205.1584 166.912-372.0704 372.0704-372.0704s372.0704 166.912 372.0704 372.0704v28.4672H768.512c-41.9328 0-75.9808 34.0992-75.9808 75.9808v228.4032c0 41.9328 34.0992 75.9808 75.9808 75.9808h111.104c41.8816 0 75.9808-34.0992 75.9808-75.9808v-332.8c0.0512-239.0528-194.4576-433.5616-433.5104-433.5616zM290.2528 627.968v228.4032c0 8.0384-6.5536 14.5408-14.5408 14.5408h-111.104c-8.0384 0-14.5408-6.5536-14.5408-14.5408v-242.944h125.696c7.936 0 14.4896 6.5024 14.4896 14.5408z m603.9552 228.4032c0 8.0384-6.5536 14.5408-14.5408 14.5408h-111.104c-8.0384 0-14.5408-6.5536-14.5408-14.5408v-228.4032c0-8.0384 6.5536-14.5408 14.5408-14.5408h125.696v242.944z" fill="#4F4F4F" /></svg>