<?xml version="1.0" standalone="no"?><!DOCTYPE svg PUBLIC "-//W3C//DTD SVG 1.1//EN" "http://www.w3.org/Graphics/SVG/1.1/DTD/svg11.dtd"><svg class="icon" width="64px" height="64.00px" viewBox="0 0 1024 1024" version="1.1" xmlns="http://www.w3.org/2000/svg"><path d="M655.7696 645.0176m-289.2288 0a289.2288 289.2288 0 1 0 578.4576 0 289.2288 289.2288 0 1 0-578.4576 0Z" fill="#F1ACB3" /><path d="M849.8688 236.9536H171.4176c-52.6336 0-95.4368 42.8032-95.4368 95.4368v41.1648c0 42.5984 28.0576 78.7456 66.6624 90.9824v324.9152c0 90.3168 73.5232 163.84 163.84 163.84h420.0448c90.3168 0 163.84-73.5232 163.84-163.84V459.8272c32.4096-15.2576 54.8864-48.128 54.8864-86.272v-41.1648c0.0512-52.6336-42.752-95.4368-95.3856-95.4368z m33.9968 95.3856v41.1648a34.048 34.048 0 0 1-33.9968 33.9968h-308.48V298.3936h308.48c18.7392 0 33.9968 15.2064 33.9968 33.9456z m-746.4448 0a34.048 34.048 0 0 1 33.9968-33.9968h308.48V407.552H171.4688a34.048 34.048 0 0 1-33.9968-33.9968v-41.216z m66.7136 457.1136V468.992h275.8144v422.912H306.5344c-56.4736-0.0512-102.4-45.9776-102.4-102.4512z m624.8448 0c0 56.4736-45.9264 102.4-102.4 102.4h-185.1904V468.992h287.5904v320.4608zM263.7312 119.3472l227.4816 75.52c3.1232 1.024 6.4 1.5872 9.6768 1.5872 3.1232 0 6.2464-0.4608 9.2672-1.4336l238.2336-75.52c16.1792-5.12 25.1392-22.3744 20.0192-38.5536s-22.4256-25.1392-38.5536-20.0192L501.0944 133.376 283.0848 61.0304c-16.0768-5.3248-33.4848 3.3792-38.8096 19.456a30.6688 30.6688 0 0 0 19.456 38.8608z" fill="#4F4F4F" /></svg>