<?xml version="1.0" standalone="no"?><!DOCTYPE svg PUBLIC "-//W3C//DTD SVG 1.1//EN" "http://www.w3.org/Graphics/SVG/1.1/DTD/svg11.dtd"><svg class="icon" width="64px" height="64.00px" viewBox="0 0 1024 1024" version="1.1" xmlns="http://www.w3.org/2000/svg"><path d="M655.8208 643.4304m-281.4464 0a281.4464 281.4464 0 1 0 562.8928 0 281.4464 281.4464 0 1 0-562.8928 0Z" fill="#90D4DD" /><path d="M753.152 260.8128h-44.6464V168.192c0-62.1056-50.5344-112.64-112.64-112.64H430.2848c-62.1056 0-112.64 50.5344-112.64 112.64v92.5696h-44.6464c-90.3168 0-163.84 73.5232-163.84 163.84v310.272c0 90.3168 73.5232 163.84 163.84 163.84h3.328v54.272c0 16.9472 13.7728 30.72 30.72 30.72s30.72-13.7728 30.72-30.72v-54.272h347.392v54.272c0 16.9472 13.7728 30.72 30.72 30.72s30.72-13.7728 30.72-30.72v-54.272h6.6048c90.3168 0 163.84-73.5232 163.84-163.84v-310.272c-0.0512-90.3168-73.5232-163.7888-163.8912-163.7888zM379.0848 168.192c0-28.2112 22.9888-51.2 51.2-51.2h165.5808c28.2112 0 51.2 22.9888 51.2 51.2v92.5696H379.0848V168.192z m476.4672 566.6816c0 56.4736-45.9264 102.4-102.4 102.4H272.9984c-56.4736 0-102.4-45.9264-102.4-102.4v-310.272c0-56.4736 45.9264-102.4 102.4-102.4h480.1536c56.4736 0 102.4 45.9264 102.4 102.4v310.272z" fill="#4F4F4F" /><path d="M575.3344 485.632H450.816c-16.9472 0-30.72-13.7728-30.72-30.72s13.7728-30.72 30.72-30.72h124.5184c16.9472 0 30.72 13.7728 30.72 30.72s-13.7728 30.72-30.72 30.72z" fill="#4F4F4F" /></svg>