<?xml version="1.0" standalone="no"?><!DOCTYPE svg PUBLIC "-//W3C//DTD SVG 1.1//EN" "http://www.w3.org/Graphics/SVG/1.1/DTD/svg11.dtd"><svg t="1626694373219" class="icon" viewBox="0 0 1024 1024" version="1.1" xmlns="http://www.w3.org/2000/svg" p-id="22766" width="32" height="32" xmlns:xlink="http://www.w3.org/1999/xlink"><defs><style type="text/css">@font-face { font-family: element-icons; src: url("chrome-extension://moombeodfomdpjnpocobemoiaemednkg/fonts/element-icons.woff") format("woff"), url("chrome-extension://moombeodfomdpjnpocobemoiaemednkg/fonts/element-icons.ttf ") format("truetype"); }
</style></defs><path d="M384 960a101.504 101.504 0 0 1-71.68-28.8l-281.6-276.48a98.304 98.304 0 0 1-30.72-71.68c0-27.264 9.6-51.584 28.8-72.96a106.24 106.24 0 0 1 72.96-30.72 101.504 101.504 0 0 1 72.32 28.8L373.76 704 840.96 103.04a104.832 104.832 0 0 1 68.48-38.4c26.88-3.84 51.84 3.2 74.88 21.12 23.04 18.304 36.224 40.96 39.68 67.84a101.248 101.248 0 0 1-21.12 75.52l-537.6 691.84a100.736 100.736 0 0 1-33.28 26.88 105.984 105.984 0 0 1-40.96 12.16H384z" p-id="22767" fill="#ffffff"></path></svg>