<?xml version="1.0" standalone="no"?><!DOCTYPE svg PUBLIC "-//W3C//DTD SVG 1.1//EN" "http://www.w3.org/Graphics/SVG/1.1/DTD/svg11.dtd"><svg class="icon" width="64px" height="64.00px" viewBox="0 0 1024 1024" version="1.1" xmlns="http://www.w3.org/2000/svg"><path d="M686.6944 572.5184m-288.8704 0a288.8704 288.8704 0 1 0 577.7408 0 288.8704 288.8704 0 1 0-577.7408 0Z" fill="#FED1B0" /><path d="M540.0064 221.184V143.36h64.8704c16.9472 0 30.72-13.7728 30.72-30.72s-13.7728-30.72-30.72-30.72H413.6448c-16.9472 0-30.72 13.7728-30.72 30.72s13.7728 30.72 30.72 30.72h64.8704v78.4384c-207.104 13.9776-371.3536 186.7776-371.3536 397.3632v139.52c0 16.9472 13.7728 30.72 30.72 30.72h754.7392c16.9472 0 30.72-13.7728 30.72-30.72v-139.52c0.0512-214.6304-170.5984-390.0416-383.3344-397.9776z m321.9456 506.7776H168.6528v-108.8c0-185.8048 151.1424-336.9472 336.9472-336.9472h19.4048c185.8048 0 336.9472 151.1424 336.9472 336.9472v108.8zM930.9184 938.3424H91.648c-16.9472 0-30.72-13.7728-30.72-30.72s13.7728-30.72 30.72-30.72h839.2704c16.9472 0 30.72 13.7728 30.72 30.72s-13.7728 30.72-30.72 30.72z" fill="#4F4F4F" /><path d="M731.648 592.1792a30.6688 30.6688 0 0 1-28.6208-19.6096c-36.864-94.7712-128.1536-129.9456-129.0752-130.304-15.872-5.9392-23.9104-23.6544-17.9712-39.5776 5.9392-15.872 23.6544-23.9104 39.5776-17.9712 4.8128 1.792 118.0672 45.4656 164.7616 165.5808a30.73536 30.73536 0 0 1-28.672 41.8816z" fill="#4F4F4F" /></svg>