<?xml version="1.0" standalone="no"?><!DOCTYPE svg PUBLIC "-//W3C//DTD SVG 1.1//EN" "http://www.w3.org/Graphics/SVG/1.1/DTD/svg11.dtd"><svg class="icon" width="64px" height="64.00px" viewBox="0 0 1024 1024" version="1.1" xmlns="http://www.w3.org/2000/svg"><path d="M636.928 621.4656m-281.4464 0a281.4464 281.4464 0 1 0 562.8928 0 281.4464 281.4464 0 1 0-562.8928 0Z" fill="#C7ACEF" /><path d="M511.1808 791.3472c-69.888 0-126.7712-56.8832-126.7712-126.7712s56.8832-126.7712 126.7712-126.7712 126.7712 56.8832 126.7712 126.7712-56.8832 126.7712-126.7712 126.7712z m0-192.0512c-35.9936 0-65.3312 29.2864-65.3312 65.3312s29.2864 65.3312 65.3312 65.3312 65.3312-29.2864 65.3312-65.3312-29.3376-65.3312-65.3312-65.3312z" fill="#4F4F4F" /><path d="M782.4896 355.7888h-28.2112V289.792c0-134.0416-109.056-243.0976-243.0976-243.0976-134.0416 0-243.0976 109.056-243.0976 243.0976v65.9968h-28.2112c-90.3168 0-163.84 73.5232-163.84 163.84v289.8944c0 90.3168 73.5232 163.84 163.84 163.84h542.6176c90.3168 0 163.84-73.5232 163.84-163.84v-289.8944c0-90.3168-73.5232-163.84-163.84-163.84zM329.5232 289.792c0-100.1472 81.4592-181.6576 181.6576-181.6576s181.6576 81.4592 181.6576 181.6576v64.768H329.5232V289.792z m555.3664 519.7312c0 56.4736-45.9264 102.4-102.4 102.4H239.872c-56.4736 0-102.4-45.9264-102.4-102.4v-289.8944c0-56.4736 45.9264-102.4 102.4-102.4h542.6176c56.4736 0 102.4 45.9264 102.4 102.4v289.8944z" fill="#4F4F4F" /></svg>