<?xml version="1.0" standalone="no"?><!DOCTYPE svg PUBLIC "-//W3C//DTD SVG 1.1//EN" "http://www.w3.org/Graphics/SVG/1.1/DTD/svg11.dtd"><svg class="icon" width="64px" height="64.00px" viewBox="0 0 1024 1024" version="1.1" xmlns="http://www.w3.org/2000/svg"><path d="M627.6608 549.376m-326.1952 0a326.1952 326.1952 0 1 0 652.3904 0 326.1952 326.1952 0 1 0-652.3904 0Z" fill="#F6EEA5" /><path d="M942.7968 81.152c-20.2752-20.2752-48.9984-27.9552-76.6976-20.5312L116.8384 261.5296c-21.0432 5.632-39.0656 19.8656-49.408 39.0144a79.0528 79.0528 0 0 0-5.5808 62.0544c92.9792 282.624 317.2352 506.7776 599.8592 599.6032 8.0896 2.6624 16.384 3.9936 24.6272 3.9936 12.9024 0 25.6512-3.2256 37.4272-9.5744 19.1488-10.3424 33.3824-28.3648 39.0144-49.408l31.8976-119.1936v-0.0512l168.6528-630.1184c7.4752-27.7504-0.256-56.4224-20.5312-76.6976z m-57.8048 38.2464c0.256-0.0512 0.4608-0.0512 0.7168-0.0512 0.7168-0.0512 1.4336-0.0512 2.0992 0 0.2048 0 0.4608 0 0.6656 0.0512 0.768 0.0512 1.4848 0.2048 2.1504 0.3584 0.1024 0 0.2048 0.0512 0.3072 0.0512 1.5872 0.4096 3.0208 1.024 4.2496 1.6896l0.3072 0.1536c0.4608 0.256 0.9216 0.5632 1.3312 0.8192 0.1024 0.1024 0.256 0.1536 0.3584 0.256 0.3584 0.256 0.7168 0.512 1.024 0.768 0.1024 0.0512 0.2048 0.1536 0.256 0.2048 0.3584 0.3072 0.6656 0.6144 0.9216 0.8704 2.2016 2.2016 7.0656 8.2944 4.6592 17.3568L743.424 741.7856c-219.136-68.9152-392.1408-241.8688-461.2096-461.0048l599.7568-160.8192c1.0752-0.3072 2.0992-0.4608 3.0208-0.5632z m-181.5552 771.8912a18.01216 18.01216 0 0 1-8.9088 11.264c-2.4576 1.3312-7.5264 3.2768-13.6704 1.28-264.192-86.784-473.8048-296.2944-560.6912-560.4352-1.9968-6.0928-0.0512-11.1616 1.28-13.6704 1.3824-2.56 4.7104-7.1168 11.264-8.9088l90.2144-24.1664c74.752 240.2304 264.3456 429.7728 504.6272 504.4224l-24.1152 90.2144z" fill="#4F4F4F" /><path d="M548.0448 403.4048m-61.2352 0a61.2352 61.2352 0 1 0 122.4704 0 61.2352 61.2352 0 1 0-122.4704 0Z" fill="#4F4F4F" /><path d="M794.3168 294.3488m-39.0656 0a39.0656 39.0656 0 1 0 78.1312 0 39.0656 39.0656 0 1 0-78.1312 0Z" fill="#4F4F4F" /></svg>