<?xml version="1.0" standalone="no"?><!DOCTYPE svg PUBLIC "-//W3C//DTD SVG 1.1//EN" "http://www.w3.org/Graphics/SVG/1.1/DTD/svg11.dtd"><svg class="icon" width="64px" height="64.00px" viewBox="0 0 1024 1024" version="1.1" xmlns="http://www.w3.org/2000/svg"><path d="M647.3728 682.24m-289.2288 0a289.2288 289.2288 0 1 0 578.4576 0 289.2288 289.2288 0 1 0-578.4576 0Z" fill="#90D4DD" /><path d="M720.0768 325.1712H548.352V268.0832h77.568c45.1584 0 81.92-36.7616 81.92-81.92V122.5728c0-45.1584-36.7616-81.92-81.92-81.92h-216.576c-44.9024 0-81.4592 36.3008-81.8688 81.152-43.0592-1.9456-132.7104 4.6592-181.248 84.992a30.7712 30.7712 0 0 0 26.2656 46.6432c10.3936 0 20.5312-5.2736 26.3168-14.848 33.1776-54.8864 99.7376-57.1904 128.6144-55.3472v2.9696c0 45.1584 36.7616 81.92 81.92 81.92H486.912v57.088H320.4096c-90.3168 0-163.84 73.5232-163.84 163.84v327.68c0 90.3168 73.5232 163.84 163.84 163.84h399.7184c90.3168 0 163.84-73.5232 163.84-163.84v-327.68c-0.0512-90.368-73.5232-163.8912-163.8912-163.8912zM388.864 186.1632V122.5728c0-11.3152 9.1648-20.48 20.48-20.48h216.576c11.3152 0 20.48 9.1648 20.48 20.48v63.6416c0 11.3152-9.1648 20.48-20.48 20.48h-216.576c-11.3152-0.0512-20.48-9.216-20.48-20.5312zM320.4096 386.6112h399.7184c56.4736 0 102.4 45.9264 102.4 102.4v178.8416c-32.8192-25.7536-78.6432-49.0496-128.3072-58.9824-75.3664-15.0528-145.92 1.9456-204.1856 49.1008-106.0864 85.9648-248.9344 12.3904-272.0256-0.4608V489.0112c0-56.4736 45.9264-102.4 102.4-102.4z m399.6672 532.48H320.4096c-56.4736 0-102.4-45.9264-102.4-102.4v-90.4192c34.2528 15.4112 89.7536 34.9184 151.3984 34.9184 51.8144 0 107.9296-13.824 159.3344-55.4496 44.1856-35.7888 95.7952-48.128 153.4464-36.608 69.6832 13.9264 119.7056 56.7808 129.8432 75.5712 2.56 4.7616 6.2464 8.5504 10.496 11.3152v60.672c-0.0512 56.4736-45.9776 102.4-102.4512 102.4z" fill="#4F4F4F" /></svg>