<?xml version="1.0" standalone="no"?><!DOCTYPE svg PUBLIC "-//W3C//DTD SVG 1.1//EN" "http://www.w3.org/Graphics/SVG/1.1/DTD/svg11.dtd"><svg class="icon" width="64px" height="64.00px" viewBox="0 0 1024 1024" version="1.1" xmlns="http://www.w3.org/2000/svg"><path d="M591.104 598.1184m-281.4464 0a281.4464 281.4464 0 1 0 562.8928 0 281.4464 281.4464 0 1 0-562.8928 0Z" fill="#90D4DD" /><path d="M749.7728 146.7392h-16.128c-10.496-48.128-53.4016-84.3264-104.6528-84.3264H401.5104c-51.2512 0-94.1568 36.1984-104.6528 84.3264h-16.128c-90.3168 0-163.84 73.472-163.84 163.84v476.928c0 90.3168 73.5232 163.84 163.84 163.84h469.0944c90.3168 0 163.84-73.5232 163.84-163.84V310.5792c-0.0512-90.368-73.5744-163.84-163.8912-163.84z m-394.0352 22.8864c0-25.2416 20.5312-45.7728 45.7728-45.7728h227.4816c25.2416 0 45.7728 20.5312 45.7728 45.7728v28.7744c0 25.2416-20.5312 45.7728-45.7728 45.7728H401.5104c-25.2416 0-45.7728-20.5312-45.7728-45.7728v-28.7744z m496.4352 617.8816c0 56.4736-45.9264 102.4-102.4 102.4H280.6784c-56.4736 0-102.4-45.9264-102.4-102.4V310.5792c0-56.4736 45.9264-102.4 102.4-102.4h14.1312c4.9664 54.528 50.8928 97.3824 106.7008 97.3824h227.4816c55.808 0 101.7344-42.8544 106.7008-97.3824h14.1312c56.4736 0 102.4 45.9264 102.4 102.4v476.928z" fill="#4F4F4F" /><path d="M476.3648 688.2816c-0.7168 0-1.4336 0-2.1504-0.0512-17.7664-0.6144-34.7136-8.6016-46.4896-21.9136-0.1536-0.2048-0.3072-0.3584-0.4608-0.5632l-92.7744-110.0288c-10.9568-12.9536-9.2672-32.3584 3.6864-43.3152a30.70464 30.70464 0 0 1 43.3152 3.6864l92.416 109.6192c0.6656 0.6656 1.4848 1.024 2.4576 1.0752 1.024 0.1536 1.8944-0.3072 2.6112-1.024l181.76-184.576c11.9296-12.0832 31.3344-12.2368 43.4688-0.3584s12.2368 31.3344 0.3584 43.4688l-182.0672 184.8832c-12.544 12.288-29.1328 19.0976-46.1312 19.0976z" fill="#4F4F4F" /></svg>