<?xml version="1.0" standalone="no"?><!DOCTYPE svg PUBLIC "-//W3C//DTD SVG 1.1//EN" "http://www.w3.org/Graphics/SVG/1.1/DTD/svg11.dtd"><svg class="icon" width="64px" height="64.00px" viewBox="0 0 1024 1024" version="1.1" xmlns="http://www.w3.org/2000/svg"><path d="M621.9264 575.4368m-281.4464 0a281.4464 281.4464 0 1 0 562.8928 0 281.4464 281.4464 0 1 0-562.8928 0Z" fill="#C0E1C6" /><path d="M779.9296 153.2928h-69.5296v-41.8304c0-16.9472-13.7728-30.72-30.72-30.72s-30.72 13.7728-30.72 30.72v41.8304H371.2v-41.8304c0-16.9472-13.7728-30.72-30.72-30.72s-30.72 13.7728-30.72 30.72v41.8304H240.2304c-90.3168 0-163.84 73.5232-163.84 163.84v447.488c0 90.3168 73.5232 163.84 163.84 163.84h539.648c90.3168 0 163.84-73.5232 163.84-163.84v-447.488c0.0512-90.368-73.472-163.84-163.7888-163.84z m102.4 611.328c0 56.4736-45.9264 102.4-102.4 102.4H240.2304c-56.4736 0-102.4-45.9264-102.4-102.4v-447.488c0-56.4736 45.9264-102.4 102.4-102.4H309.76v45.7728c0 16.9472 13.7728 30.72 30.72 30.72s30.72-13.7728 30.72-30.72v-45.7728h277.76v45.7728c0 16.9472 13.7728 30.72 30.72 30.72s30.72-13.7728 30.72-30.72v-45.7728h69.5296c56.4736 0 102.4 45.9264 102.4 102.4v447.488z" fill="#4F4F4F" /><path d="M476.7232 720.5888H340.48c-16.9472 0-30.72-13.7728-30.72-30.72v-128.4096c0-16.9472 13.7728-30.72 30.72-30.72h97.6896V468.6336h-107.52c-16.9472 0-30.72-13.7728-30.72-30.72s13.7728-30.72 30.72-30.72h138.24c16.9472 0 30.72 13.7728 30.72 30.72v123.5456c0 16.9472-13.7728 30.72-30.72 30.72H371.2v66.9696h105.5744c16.9472 0 30.72 13.7728 30.72 30.72s-13.7728 30.72-30.7712 30.72zM679.68 735.5392c-16.9472 0-30.72-13.7728-30.72-30.72V417.3312c0-16.9472 13.7728-30.72 30.72-30.72s30.72 13.7728 30.72 30.72v287.488c0 16.9472-13.7728 30.72-30.72 30.72z" fill="#4F4F4F" /></svg>