<?xml version="1.0" standalone="no"?><!DOCTYPE svg PUBLIC "-//W3C//DTD SVG 1.1//EN" "http://www.w3.org/Graphics/SVG/1.1/DTD/svg11.dtd"><svg class="icon" width="64px" height="64.00px" viewBox="0 0 1024 1024" version="1.1" xmlns="http://www.w3.org/2000/svg"><path d="M615.2192 577.8944m-289.2288 0a289.2288 289.2288 0 1 0 578.4576 0 289.2288 289.2288 0 1 0-578.4576 0Z" fill="#A0B8EA" /><path d="M144.384 383.744c-16.9472 0-30.72-13.7728-30.72-30.72V219.2896c0-62.1056 50.5344-112.64 112.64-112.64h155.8528c16.9472 0 30.72 13.7728 30.72 30.72s-13.7728 30.72-30.72 30.72H226.304c-28.2112 0-51.2 22.9888-51.2 51.2v133.6832c0 16.9984-13.7728 30.7712-30.72 30.7712zM879.7696 383.744c-16.9472 0-30.72-13.7728-30.72-30.72V219.2896c0-28.2112-22.9888-51.2-51.2-51.2h-155.8528c-16.9472 0-30.72-13.7728-30.72-30.72s13.7728-30.72 30.72-30.72h155.8528c62.1056 0 112.64 50.5344 112.64 112.64v133.6832c0 16.9984-13.7728 30.7712-30.72 30.7712zM382.1568 903.6288H226.304c-62.1056 0-112.64-50.5344-112.64-112.64v-133.6832c0-16.9472 13.7728-30.72 30.72-30.72s30.72 13.7728 30.72 30.72v133.6832c0 28.2112 22.9888 51.2 51.2 51.2h155.8528c16.9472 0 30.72 13.7728 30.72 30.72s-13.7728 30.72-30.72 30.72zM797.8496 903.6288h-155.8528c-16.9472 0-30.72-13.7728-30.72-30.72s13.7728-30.72 30.72-30.72h155.8528c28.2112 0 51.2-22.9888 51.2-51.2v-133.6832c0-16.9472 13.7728-30.72 30.72-30.72s30.72 13.7728 30.72 30.72v133.6832c0 62.1056-50.5344 112.64-112.64 112.64zM950.3744 537.6512H75.8784c-16.9472 0-30.72-13.7728-30.72-30.72s13.7728-30.72 30.72-30.72h874.5472c16.9472 0 30.72 13.7728 30.72 30.72s-13.7728 30.72-30.7712 30.72z" fill="#4F4F4F" /></svg>