<?xml version="1.0" standalone="no"?><!DOCTYPE svg PUBLIC "-//W3C//DTD SVG 1.1//EN" "http://www.w3.org/Graphics/SVG/1.1/DTD/svg11.dtd"><svg class="icon" width="64px" height="64.00px" viewBox="0 0 1024 1024" version="1.1" xmlns="http://www.w3.org/2000/svg"><path d="M617.4208 610.048m-281.4464 0a281.4464 281.4464 0 1 0 562.8928 0 281.4464 281.4464 0 1 0-562.8928 0Z" fill="#C7ACEF" /><path d="M781.1072 238.848h-59.8016c-11.776-104.448-100.608-185.856-208.1792-185.856s-196.352 81.4592-208.1792 185.856H249.2928c-90.3168 0-163.84 73.5232-163.84 163.84v404.5312c0 90.3168 73.5232 163.84 163.84 163.84h531.8144c90.3168 0 163.84-73.5232 163.84-163.84V402.688c0-90.368-73.472-163.84-163.84-163.84z m-267.9296-124.4672c73.6256 0 134.8096 53.9648 146.176 124.416h-292.352c11.3664-70.4 72.5504-124.416 146.176-124.416z m370.3296 692.8384c0 56.4736-45.9264 102.4-102.4 102.4H249.2928c-56.4736 0-102.4-45.9264-102.4-102.4V402.688c0-56.4736 45.9264-102.4 102.4-102.4h54.3744v126.8736c0 16.9472 13.7728 30.72 30.72 30.72s30.72-13.7728 30.72-30.72V300.288h296.192v126.8736c0 16.9472 13.7728 30.72 30.72 30.72s30.72-13.7728 30.72-30.72V300.288h58.4192c56.4736 0 102.4 45.9264 102.4 102.4v404.5312z" fill="#4F4F4F" /></svg>