<?xml version="1.0" standalone="no"?><!DOCTYPE svg PUBLIC "-//W3C//DTD SVG 1.1//EN" "http://www.w3.org/Graphics/SVG/1.1/DTD/svg11.dtd"><svg class="icon" width="64px" height="64.00px" viewBox="0 0 1024 1024" version="1.1" xmlns="http://www.w3.org/2000/svg"><path d="M575.6928 571.2384m-281.4464 0a281.4464 281.4464 0 1 0 562.8928 0 281.4464 281.4464 0 1 0-562.8928 0Z" fill="#C0E1C6" /><path d="M513.8944 955.0848c-247.1424 0-448.2048-201.0624-448.2048-448.2048s201.0624-448.2048 448.2048-448.2048S962.0992 259.7376 962.0992 506.88s-201.0624 448.2048-448.2048 448.2048z m0-834.9696c-213.248 0-386.7648 173.5168-386.7648 386.7648s173.5168 386.7648 386.7648 386.7648 386.7648-173.5168 386.7648-386.7648-173.5168-386.7648-386.7648-386.7648z" fill="#4F4F4F" /><path d="M440.7296 713.8304c-14.1312 0-28.2112-3.7376-41.0624-11.1616-25.7024-14.848-41.0624-41.472-41.0624-71.168V401.8688c0-29.696 15.36-56.32 41.0624-71.168 25.7536-14.848 56.4224-14.848 82.176 0l198.912 114.8416c25.7024 14.848 41.0624 41.472 41.0624 71.168 0 29.696-15.36 56.32-41.0624 71.168L481.792 702.6688c-12.8512 7.424-26.9824 11.1616-41.0624 11.1616z m0.1024-332.7488c-4.7616 0-8.5504 1.7408-10.4448 2.8672-3.1232 1.792-10.3424 7.168-10.3424 17.92v229.6832c0 10.8032 7.2704 16.128 10.3424 17.92 3.1232 1.792 11.3664 5.4272 20.736 0l198.912-114.8416c9.3696-5.376 10.3424-14.336 10.3424-17.92 0-3.584-1.024-12.544-10.3424-17.92L451.072 383.8976c-3.6864-2.0992-7.168-2.816-10.24-2.816z" fill="#4F4F4F" /></svg>