<?xml version="1.0" standalone="no"?><!DOCTYPE svg PUBLIC "-//W3C//DTD SVG 1.1//EN" "http://www.w3.org/Graphics/SVG/1.1/DTD/svg11.dtd"><svg class="icon" width="64px" height="64.00px" viewBox="0 0 1024 1024" version="1.1" xmlns="http://www.w3.org/2000/svg"><path d="M660.8384 641.4336m-281.4464 0a281.4464 281.4464 0 1 0 562.8928 0 281.4464 281.4464 0 1 0-562.8928 0Z" fill="#C0E1C6" /><path d="M944.2304 852.992l-264.448-457.3184c-0.9728-1.6896-1.4848-3.584-1.4848-5.4784V127.4368h36.3008c16.9472 0 30.72-13.7728 30.72-30.72s-13.7728-30.72-30.72-30.72H305.664c-16.9472 0-30.72 13.7728-30.72 30.72s13.7728 30.72 30.72 30.72h38.8096v262.912c0 1.8944-0.512 3.7888-1.4336 5.4272l-259.7888 457.728c-12.8512 22.6816-12.7488 49.664 0.4096 72.192 13.1072 22.528 36.5056 35.9936 62.5664 35.9936h735.3344c26.2144 0 49.664-13.568 62.72-36.2496 13.1072-22.6816 13.056-49.7664-0.0512-72.448zM396.4416 426.1376c6.1952-10.8544 9.4208-23.2448 9.4208-35.7376V127.4368h210.944v262.7584c0 12.6976 3.3792 25.2416 9.728 36.2496l85.9136 148.5824c-62.208-16.8448-141.9264-19.3024-211.6608 18.0736-69.9904 37.4784-159.232 20.0704-203.3664 7.5264l99.0208-174.4896z m494.6432 468.6336c-1.1776 2.048-3.9936 5.4784-9.5232 5.4784H146.2272c-5.4784 0-8.2944-3.4304-9.472-5.4784-1.1776-2.048-2.7648-6.144-0.0512-10.9568l129.6384-228.4032c26.3168 8.4992 76.544 21.8112 133.12 21.8112 42.3936 0 88.32-7.4752 130.4064-30.0032 98.3552-52.6848 220.5184 2.5088 234.0864 18.688 0.9216 1.1264 1.9456 2.1504 2.9696 3.1232l124.16 214.6816c2.7136 4.864 1.1776 9.0112 0 11.0592z" fill="#4F4F4F" /></svg>