<?xml version="1.0" standalone="no"?><!DOCTYPE svg PUBLIC "-//W3C//DTD SVG 1.1//EN" "http://www.w3.org/Graphics/SVG/1.1/DTD/svg11.dtd"><svg class="icon" width="64px" height="64.00px" viewBox="0 0 1024 1024" version="1.1" xmlns="http://www.w3.org/2000/svg"><path d="M563.5584 602.9824m-281.4464 0a281.4464 281.4464 0 1 0 562.8928 0 281.4464 281.4464 0 1 0-562.8928 0Z" fill="#F1ACB3" /><path d="M708.0448 63.744H321.1264c-90.3168 0-163.84 73.5232-163.84 163.84v575.6416c0 90.3168 73.5232 163.84 163.84 163.84h386.9184c90.3168 0 163.84-73.5232 163.84-163.84V227.584c0-90.368-73.472-163.84-163.84-163.84z m-386.9184 61.44h386.9184c56.4736 0 102.4 45.9264 102.4 102.4v421.7856H218.7264V227.584c0-56.4736 45.9264-102.4 102.4-102.4z m386.9184 780.3904H321.1264c-56.4736 0-102.4-45.9264-102.4-102.4v-92.3648h591.7184v92.3648c0 56.4736-45.9264 102.4-102.4 102.4z" fill="#4F4F4F" /><path d="M514.56 799.0272m-41.1648 0a41.1648 41.1648 0 1 0 82.3296 0 41.1648 41.1648 0 1 0-82.3296 0Z" fill="#4F4F4F" /></svg>