<?xml version="1.0" standalone="no"?><!DOCTYPE svg PUBLIC "-//W3C//DTD SVG 1.1//EN" "http://www.w3.org/Graphics/SVG/1.1/DTD/svg11.dtd"><svg class="icon" width="64px" height="64.00px" viewBox="0 0 1024 1024" version="1.1" xmlns="http://www.w3.org/2000/svg"><path d="M591.5648 588.5952m-281.4464 0a281.4464 281.4464 0 1 0 562.8928 0 281.4464 281.4464 0 1 0-562.8928 0Z" fill="#A0B8EA" /><path d="M839.4752 955.0848h-119.6544c-53.0432 0-96.1536-43.1616-96.1536-96.1536v-169.1648c0-28.2112-22.9888-51.2-51.2-51.2H463.7184c-28.2112 0-51.2 22.9888-51.2 51.2v169.1648c0 53.0432-43.1616 96.1536-96.1536 96.1536H196.6592c-60.672 0-110.08-49.3568-110.08-110.08V424.9088c0-58.4704 28.0064-114.2272 74.9568-149.0432 0.4096-0.3072 0.768-0.5632 1.1776-0.8192l290.304-195.1232c38.9632-28.5184 90.9824-28.5184 129.9968 0l290.304 195.1232c0.4096 0.256 0.8192 0.5632 1.1776 0.8192 46.9504 34.8672 74.9568 90.5728 74.9568 149.0432v420.096c0.0512 60.7232-49.3056 110.08-109.9776 110.08z m-375.7568-377.9584h108.6976c62.1056 0 112.64 50.5344 112.64 112.64v169.1648c0 19.1488 15.5648 34.7136 34.7136 34.7136h119.6544c26.8288 0 48.64-21.8112 48.64-48.64V424.9088c0-38.912-18.5344-75.9808-49.6128-99.328l-290.2016-195.072c-0.4096-0.256-0.768-0.5632-1.1776-0.8192-17.3568-12.9024-40.6528-12.8512-58.0096 0-0.4096 0.3072-0.768 0.5632-1.1776 0.8192L197.632 325.5808a124.73856 124.73856 0 0 0-49.6128 99.328v420.096c0 26.8288 21.8112 48.64 48.64 48.64h119.6544c19.1488 0 34.7136-15.5648 34.7136-34.7136v-169.1648c0.0512-62.1056 50.5856-112.64 112.6912-112.64z" fill="#4F4F4F" /></svg>