<?xml version="1.0" standalone="no"?><!DOCTYPE svg PUBLIC "-//W3C//DTD SVG 1.1//EN" "http://www.w3.org/Graphics/SVG/1.1/DTD/svg11.dtd"><svg class="icon" width="64px" height="64.00px" viewBox="0 0 1024 1024" version="1.1" xmlns="http://www.w3.org/2000/svg"><path d="M572.5184 575.6416m-281.4464 0a281.4464 281.4464 0 1 0 562.8928 0 281.4464 281.4464 0 1 0-562.8928 0Z" fill="#C7ACEF" /><path d="M904.96 602.112a30.72 30.72 0 0 0-38.0416 20.9408c-0.256 0.9216-27.4432 92.8256-92.9792 162.4064-64.256 68.2496-152.4224 106.5984-248.2688 108.0832-1.8432 0.0512-3.6352 0.0512-5.4272 0.0512-97.792 0-193.1776-39.4752-262.4512-108.7488-69.0176-69.0176-107.0592-160.8192-107.0592-258.4064 0-97.6384 37.9904-189.3888 107.0592-258.4064 69.0176-69.0176 160.8192-107.0592 258.4064-107.0592 97.6384 0 189.3888 37.9904 258.4064 107.0592 1.3824 1.3824 2.9184 2.6112 4.5056 3.6864h-114.944c-16.9472 0-30.72 13.7728-30.72 30.72s13.7728 30.72 30.72 30.72h182.9888c16.9472 0 30.72-13.7728 30.72-30.72V119.04c0-16.9472-13.7728-30.72-30.72-30.72s-30.72 13.7728-30.72 30.72v103.936C736 143.36 629.504 99.4816 516.1984 99.4816c-114.0224 0-221.2352 44.3904-301.8752 125.0304-80.64 80.64-125.0816 187.8528-125.0816 301.8752 0 114.0224 44.3904 221.2352 125.0304 301.8752 80.7936 80.7936 191.9488 126.7712 305.92 126.7712 2.0992 0 4.2496 0 6.3488-0.0512 112.5888-1.6896 216.32-46.9504 292.096-127.3856 75.5712-80.2304 105.984-183.0912 107.264-187.4432 4.7616-16.2816-4.6592-33.3312-20.9408-38.0416z m-88.576-330.496h-2.8672c1.024-0.6656 1.9456-1.536 2.8672-2.3552v2.3552z" fill="#4F4F4F" /></svg>