<?xml version="1.0" standalone="no"?><!DOCTYPE svg PUBLIC "-//W3C//DTD SVG 1.1//EN" "http://www.w3.org/Graphics/SVG/1.1/DTD/svg11.dtd"><svg class="icon" width="64px" height="64.00px" viewBox="0 0 1024 1024" version="1.1" xmlns="http://www.w3.org/2000/svg"><path d="M530.6368 492.6976m-287.1296 0a287.1296 287.1296 0 1 0 574.2592 0 287.1296 287.1296 0 1 0-574.2592 0Z" fill="#C7ACEF" /><path d="M493.3632 740.0448c-149.248 0-270.6944-121.4464-270.6944-270.6944 0-16.9472 13.7728-30.72 30.72-30.72s30.72 13.7728 30.72 30.72c0 115.3536 93.8496 209.2544 209.2544 209.2544 16.9472 0 30.72 13.7728 30.72 30.72s-13.7728 30.72-30.72 30.72z" fill="#4F4F4F" /><path d="M952.576 911.6672l-157.3376-154.368c71.5264-74.9568 115.6096-176.384 115.6096-287.9488 0-230.1952-187.2896-417.4848-417.4848-417.4848-230.1952 0-417.4848 187.2896-417.4848 417.4848s187.2896 417.4848 417.4848 417.4848c96.5632 0 185.4464-33.024 256.256-88.2688l159.9488 156.928a30.60224 30.60224 0 0 0 21.504 8.8064c7.936 0 15.9232-3.072 21.9136-9.216 11.8784-12.0832 11.6736-31.5392-0.4096-43.4176zM137.3184 469.3504c0-196.352 159.744-356.0448 356.0448-356.0448 196.352 0 356.0448 159.744 356.0448 356.0448s-159.744 356.0448-356.0448 356.0448c-196.352 0-356.0448-159.744-356.0448-356.0448z" fill="#4F4F4F" /></svg>