<?xml version="1.0" standalone="no"?><!DOCTYPE svg PUBLIC "-//W3C//DTD SVG 1.1//EN" "http://www.w3.org/Graphics/SVG/1.1/DTD/svg11.dtd"><svg class="icon" width="64px" height="64.00px" viewBox="0 0 1024 1024" version="1.1" xmlns="http://www.w3.org/2000/svg"><path d="M617.9328 527.36m-281.4464 0a281.4464 281.4464 0 1 0 562.8928 0 281.4464 281.4464 0 1 0-562.8928 0Z" fill="#FED1B0" /><path d="M811.9296 145.8688H226.0992c-90.3168 0-163.84 73.472-163.84 163.84v413.9008c0 90.3168 73.5232 163.84 163.84 163.84h585.8816c90.3168 0 163.84-73.5232 163.84-163.84V309.7088c-0.0512-90.3168-73.5232-163.84-163.8912-163.84z m-585.8304 61.44h585.8816c56.4736 0 102.4 45.9264 102.4 102.4v360.2432l-123.0848-162.7136a90.65984 90.65984 0 0 0-133.6832-11.9808l-196.4544 180.8384a29.12256 29.12256 0 0 1-38.8608 0.6144l-72.4992-62.72c-34.5088-29.8496-86.1184-29.3376-120.0128 1.2288l-106.0864 95.6928V309.7088c0-56.4736 45.9264-102.4 102.4-102.4z m585.8304 618.752H226.0992c-36.096 0-67.7888-18.7904-86.0672-47.104l130.9184-118.1184a29.25056 29.25056 0 0 1 38.656-0.4096l72.448 62.72c34.8672 30.208 86.784 29.3888 120.6784-1.8432l196.4544-180.8384c6.144-5.632 14.08-8.3968 22.3744-7.5776 8.2944 0.768 15.6672 4.8128 20.6848 11.4688l161.1776 213.0432c1.1264 1.4848 2.3552 2.7648 3.6352 3.9936-15.0528 37.7856-51.968 64.6656-95.1296 64.6656z" fill="#4F4F4F" /><path d="M283.0336 465.7152c-49.2544 0-89.2928-40.0384-89.2928-89.2928s40.0384-89.2928 89.2928-89.2928 89.2928 40.0384 89.2928 89.2928-40.0896 89.2928-89.2928 89.2928z m0-117.1456c-15.36 0-27.8528 12.4928-27.8528 27.8528s12.4928 27.8528 27.8528 27.8528c15.36 0 27.8528-12.4928 27.8528-27.8528s-12.4928-27.8528-27.8528-27.8528z" fill="#4F4F4F" /></svg>