<?xml version="1.0" standalone="no"?><!DOCTYPE svg PUBLIC "-//W3C//DTD SVG 1.1//EN" "http://www.w3.org/Graphics/SVG/1.1/DTD/svg11.dtd"><svg t="1625144849451" class="icon" viewBox="0 0 1024 1024" version="1.1" xmlns="http://www.w3.org/2000/svg" p-id="20472" xmlns:xlink="http://www.w3.org/1999/xlink" width="64" height="64"><defs><style type="text/css">@font-face { font-family: element-icons; src: url("chrome-extension://moombeodfomdpjnpocobemoiaemednkg/fonts/element-icons.woff") format("woff"), url("chrome-extension://moombeodfomdpjnpocobemoiaemednkg/fonts/element-icons.ttf ") format("truetype"); }
</style></defs><path d="M630.7328 667.8016m-212.7872 0a212.7872 212.7872 0 1 0 425.5744 0 212.7872 212.7872 0 1 0-425.5744 0Z" fill="#FF8080" p-id="20473"></path><path d="M688.6912 896.8192H339.456c-86.2208 0-156.3136-70.144-156.3136-156.3136V292.1472c0-86.2208 70.144-156.3136 156.3136-156.3136h349.2352c86.2208 0 156.3136 70.144 156.3136 156.3136v448.3072c0 86.2208-70.0928 156.3648-156.3136 156.3648zM339.456 187.0336c-57.9584 0-105.1136 47.1552-105.1136 105.1136v448.3072c0 57.9584 47.1552 105.1136 105.1136 105.1136h349.2352c57.9584 0 105.1136-47.1552 105.1136-105.1136V292.1472c0-57.9584-47.1552-105.1136-105.1136-105.1136H339.456z" fill="#512C56" p-id="20474"></path><path d="M550.3488 388.096H374.8352c-14.1312 0-25.6-11.4688-25.6-25.6s11.4688-25.6 25.6-25.6h175.4624c14.1312 0 25.6 11.4688 25.6 25.6s-11.4176 25.6-25.5488 25.6zM646.2464 540.7744H374.8352c-14.1312 0-25.6-11.4688-25.6-25.6s11.4688-25.6 25.6-25.6h271.4112c14.1312 0 25.6 11.4688 25.6 25.6s-11.4176 25.6-25.6 25.6zM646.2464 693.4016H374.8352c-14.1312 0-25.6-11.4688-25.6-25.6s11.4688-25.6 25.6-25.6h271.4112c14.1312 0 25.6 11.4688 25.6 25.6s-11.4176 25.6-25.6 25.6z" fill="#512C56" p-id="20475"></path></svg>