<?xml version="1.0" standalone="no"?><!DOCTYPE svg PUBLIC "-//W3C//DTD SVG 1.1//EN" "http://www.w3.org/Graphics/SVG/1.1/DTD/svg11.dtd"><svg class="icon" width="64px" height="64.00px" viewBox="0 0 1024 1024" version="1.1" xmlns="http://www.w3.org/2000/svg"><path d="M683.9296 647.68m-281.4464 0a281.4464 281.4464 0 1 0 562.8928 0 281.4464 281.4464 0 1 0-562.8928 0Z" fill="#90D4DD" /><path d="M513.6896 520.704c-126.1568 0-228.7616-102.6048-228.7616-228.7616s102.6048-228.7616 228.7616-228.7616 228.7616 102.6048 228.7616 228.7616-102.6048 228.7616-228.7616 228.7616z m0-396.0832c-92.2624 0-167.3216 75.0592-167.3216 167.3216S421.4272 459.264 513.6896 459.264s167.3216-75.0592 167.3216-167.3216-75.0592-167.3216-167.3216-167.3216zM739.8912 947.6608H287.5392c-109.9776 0-199.424-89.4464-199.424-199.424s89.4464-199.424 199.424-199.424h452.352c109.9776 0 199.424 89.4464 199.424 199.424s-89.4976 199.424-199.424 199.424zM287.5392 610.304c-76.0832 0-137.984 61.9008-137.984 137.984S211.456 886.272 287.5392 886.272h452.352c76.0832 0 137.984-61.9008 137.984-137.984s-61.9008-137.984-137.984-137.984H287.5392z" fill="#4F4F4F" /></svg>