<?xml version="1.0" standalone="no"?><!DOCTYPE svg PUBLIC "-//W3C//DTD SVG 1.1//EN" "http://www.w3.org/Graphics/SVG/1.1/DTD/svg11.dtd"><svg t="1625128884043" class="icon" viewBox="0 0 1024 1024" version="1.1" xmlns="http://www.w3.org/2000/svg" p-id="1892" xmlns:xlink="http://www.w3.org/1999/xlink" width="64" height="64"><defs><style type="text/css">@font-face { font-family: element-icons; src: url("chrome-extension://moombeodfomdpjnpocobemoiaemednkg/fonts/element-icons.woff") format("woff"), url("chrome-extension://moombeodfomdpjnpocobemoiaemednkg/fonts/element-icons.ttf ") format("truetype"); }
</style></defs><path d="M633.7 99.3c-147.2 0-266.5 116.5-266.5 260.2 0 65.9 25.1 126.1 66.5 171.9l-86.9 86.9L216 487.4l-52.3 52.3 130.8 130.8L108.8 856.2l52.3 52.3 185.7-185.7 130.8 130.8 52.3-52.3L399.2 670.5l91.5-91.5c41.3 25.7 90.4 40.6 143 40.6 147.2 0 266.5-116.5 266.5-260.2S780.9 99.3 633.7 99.3zM633.7 545.6c-106.2 0-192.5-83.5-192.5-186.2s86.4-186.2 192.5-186.2c106.2 0 192.5 83.5 192.5 186.2S739.8 545.6 633.7 545.6z" p-id="1893"></path></svg>