<?xml version="1.0" standalone="no"?><!DOCTYPE svg PUBLIC "-//W3C//DTD SVG 1.1//EN" "http://www.w3.org/Graphics/SVG/1.1/DTD/svg11.dtd"><svg class="icon" width="64px" height="64.00px" viewBox="0 0 1024 1024" version="1.1" xmlns="http://www.w3.org/2000/svg"><path d="M657.3568 586.0864m-281.4464 0a281.4464 281.4464 0 1 0 562.8928 0 281.4464 281.4464 0 1 0-562.8928 0Z" fill="#90D4DD" /><path d="M512 699.8528c-92.0064 0-166.8096-74.8544-166.8096-166.8096S420.0448 366.2336 512 366.2336s166.8096 74.8544 166.8096 166.8096-74.8032 166.8096-166.8096 166.8096z m0-272.1792c-58.112 0-105.3696 47.2576-105.3696 105.3696s47.2576 105.3696 105.3696 105.3696 105.3696-47.2576 105.3696-105.3696-47.2576-105.3696-105.3696-105.3696z" fill="#4F4F4F" /><path d="M816.0768 909.4656H207.2064c-92.3648 0-167.4752-75.1104-167.4752-167.4752V402.176c0-92.3648 75.1104-167.4752 167.4752-167.4752h32.6656c13.6192 0 25.7024-8.192 30.7712-20.8384l20.1728-50.5856c14.4384-36.1472 48.896-59.5456 87.8592-59.5456h261.7856c39.424 0 75.0592 24.832 88.7296 61.8496l17.5104 47.4624a33.21856 33.21856 0 0 0 31.0784 21.6576h38.3488c92.3648 0 167.4752 75.1104 167.4752 167.4752v339.8144c-0.0512 92.3648-75.2128 167.4752-167.5264 167.4752zM207.2064 296.1408c-58.4704 0-106.0352 47.5648-106.0352 106.0352v339.8144c0 58.4704 47.5648 106.0352 106.0352 106.0352h608.8704c58.4704 0 106.0352-47.5648 106.0352-106.0352V402.176c0-58.4704-47.5648-106.0352-106.0352-106.0352h-38.3488c-39.424 0-75.0592-24.832-88.7296-61.8496l-17.5104-47.4624a33.21856 33.21856 0 0 0-31.0784-21.6576H378.624a33.024 33.024 0 0 0-30.7712 20.8384L327.68 236.5952c-14.4384 36.1472-48.896 59.5456-87.8592 59.5456h-32.6144z" fill="#4F4F4F" /></svg>