<?xml version="1.0" standalone="no"?><!DOCTYPE svg PUBLIC "-//W3C//DTD SVG 1.1//EN" "http://www.w3.org/Graphics/SVG/1.1/DTD/svg11.dtd"><svg class="icon" width="64px" height="64.00px" viewBox="0 0 1024 1024" version="1.1" xmlns="http://www.w3.org/2000/svg"><path d="M688.3328 527.36m-281.4464 0a281.4464 281.4464 0 1 0 562.8928 0 281.4464 281.4464 0 1 0-562.8928 0Z" fill="#F6EEA5" /><path d="M517.9392 920.4736c-20.8896 0-41.7792-7.68-57.856-23.1424l-121.0368-116.3264a21.9136 21.9136 0 0 0-15.3088-6.144h-104.448c-90.3168 0-163.84-73.5232-163.84-163.84V263.5264c0-90.368 73.5232-163.84 163.84-163.84h593.92c90.3168 0 163.84 73.472 163.84 163.84v347.4944c0 90.3168-73.5232 163.84-163.84 163.84h-106.3424c-5.8368 0-11.5712 2.3552-15.7184 6.5024L577.2288 896c-16.2304 16.2816-37.7856 24.4736-59.2896 24.4736zM219.2384 161.1264c-56.4736 0-102.4 45.9264-102.4 102.4v347.4944c0 56.4736 45.9264 102.4 102.4 102.4h104.448c21.7088 0 42.24 8.2944 57.9072 23.296l121.0368 116.3264c8.6528 8.2944 22.5792 8.1408 31.0272-0.3584l113.8688-114.5856c15.5648-15.6672 37.1712-24.6784 59.2896-24.6784h106.3424c56.4736 0 102.4-45.9264 102.4-102.4V263.5264c0-56.4736-45.9264-102.4-102.4-102.4h-593.92z" fill="#4F4F4F" /><path d="M730.5728 365.7216H306.9952c-16.9472 0-30.72-13.7728-30.72-30.72s13.7728-30.72 30.72-30.72h423.5264c16.9472 0 30.72 13.7728 30.72 30.72s-13.7216 30.72-30.6688 30.72zM555.4176 574.8736H306.9952c-16.9472 0-30.72-13.7728-30.72-30.72s13.7728-30.72 30.72-30.72h248.3712c16.9472 0 30.72 13.7728 30.72 30.72s-13.7216 30.72-30.6688 30.72z" fill="#4F4F4F" /></svg>