<?xml version="1.0" standalone="no"?><!DOCTYPE svg PUBLIC "-//W3C//DTD SVG 1.1//EN" "http://www.w3.org/Graphics/SVG/1.1/DTD/svg11.dtd"><svg class="icon" width="64px" height="64.00px" viewBox="0 0 1024 1024" version="1.1" xmlns="http://www.w3.org/2000/svg"><path d="M650.8544 602.9824m-281.4464 0a281.4464 281.4464 0 1 0 562.8928 0 281.4464 281.4464 0 1 0-562.8928 0Z" fill="#C0E1C6" /><path d="M512 937.1648c-26.7264 0-51.8656-10.3936-70.7584-29.3376l-313.9584-313.9584c-109.6192-109.6192-109.6192-288 0-397.6192 105.4208-105.4208 274.432-109.4656 384.768-12.1344 110.2848-97.3312 279.296-93.3376 384.7168 12.1344 109.6192 109.6192 109.6192 288 0 397.6192l-313.9584 313.9584c-18.944 18.944-44.0832 29.3376-70.8096 29.3376zM326.0928 175.4624c-56.2688 0-112.5376 21.4016-155.392 64.256-85.6576 85.6576-85.6576 225.0752 0 310.7328l313.9584 313.9584a38.33344 38.33344 0 0 0 27.3408 11.3152c10.3424 0 20.0192-4.0448 27.3408-11.3152l313.9584-313.9584c85.6576-85.6576 85.6576-225.0752 0-310.7328-85.6576-85.6576-225.0752-85.6576-310.7328 0l-8.8064 8.8576a30.65344 30.65344 0 0 1-43.4176 0l-8.8576-8.8576c-42.8544-42.8544-99.1744-64.256-155.392-64.256z" fill="#4F4F4F" /><path d="M827.6992 471.6032c-2.56 0-5.2224-0.3072-7.8336-1.024a30.70976 30.70976 0 0 1-21.9136-37.5296c10.1888-38.656-1.0752-80.2304-29.2864-108.4928a112.98816 112.98816 0 0 0-86.9888-32.768c-16.9472 1.1264-31.5392-11.7248-32.6144-28.672s11.7248-31.5392 28.672-32.6144c50.0224-3.2256 99.0208 15.2064 134.4 50.6368 43.6224 43.6224 60.9792 107.8272 45.2608 167.5264a30.73024 30.73024 0 0 1-29.696 22.9376z" fill="#4F4F4F" /></svg>