<?xml version="1.0" standalone="no"?><!DOCTYPE svg PUBLIC "-//W3C//DTD SVG 1.1//EN" "http://www.w3.org/Graphics/SVG/1.1/DTD/svg11.dtd"><svg class="icon" width="64px" height="64.00px" viewBox="0 0 1024 1024" version="1.1" xmlns="http://www.w3.org/2000/svg"><path d="M611.7888 527.36m-281.4464 0a281.4464 281.4464 0 1 0 562.8928 0 281.4464 281.4464 0 1 0-562.8928 0Z" fill="#F6EEA5" /><path d="M805.7856 145.8688H219.9552c-90.3168 0-163.84 73.472-163.84 163.84v413.9008c0 90.3168 73.5232 163.84 163.84 163.84h585.8816c90.3168 0 163.84-73.5232 163.84-163.84V309.7088c-0.0512-90.3168-73.5232-163.84-163.8912-163.84z m-585.8304 61.44h585.8816c50.3808 0 92.3136 36.608 100.7616 84.6336L553.6768 475.648a89.15456 89.15456 0 0 1-81.7664 0.2048L118.8352 294.144c7.5776-49.0496 49.9712-86.8352 101.12-86.8352z m585.8304 618.752H219.9552c-56.4736 0-102.4-45.9264-102.4-102.4V362.5984l326.1952 167.936c21.5552 11.1104 45.2096 16.64 68.8128 16.64 23.8592 0 47.7184-5.6832 69.4272-16.9472l326.1952-169.8304v363.264c0 56.4736-45.9264 102.4-102.4 102.4z" fill="#4F4F4F" /></svg>