<?xml version="1.0" standalone="no"?><!DOCTYPE svg PUBLIC "-//W3C//DTD SVG 1.1//EN" "http://www.w3.org/Graphics/SVG/1.1/DTD/svg11.dtd"><svg class="icon" width="64px" height="64.00px" viewBox="0 0 1024 1024" version="1.1" xmlns="http://www.w3.org/2000/svg"><path d="M674.048 643.6352m-281.4464 0a281.4464 281.4464 0 1 0 562.8928 0 281.4464 281.4464 0 1 0-562.8928 0Z" fill="#A0B8EA" /><path d="M826.5216 881.7152H205.1072c-90.3168 0-163.84-73.5232-163.84-163.84V305.664c0-90.3168 73.5232-163.84 163.84-163.84h621.3632c90.3168 0 163.84 73.5232 163.84 163.84v412.2112c0.0512 90.368-73.472 163.84-163.7888 163.84zM205.1072 203.264c-56.4736 0-102.4 45.9264-102.4 102.4v412.2112c0 56.4736 45.9264 102.4 102.4 102.4h621.3632c56.4736 0 102.4-45.9264 102.4-102.4V305.664c0-56.4736-45.9264-102.4-102.4-102.4H205.1072z" fill="#4F4F4F" /><path d="M940.3392 382.6688H92.672c-16.9472 0-30.72-13.7728-30.72-30.72s13.7728-30.72 30.72-30.72h847.7184c16.9472 0 30.72 13.7728 30.72 30.72s-13.7728 30.72-30.7712 30.72zM360.8576 514.7648H215.7568c-16.9472 0-30.72-13.7728-30.72-30.72s13.7728-30.72 30.72-30.72h145.152c16.9472 0 30.72 13.7728 30.72 30.72s-13.7728 30.72-30.7712 30.72z" fill="#4F4F4F" /></svg>