<?xml version="1.0" standalone="no"?><!DOCTYPE svg PUBLIC "-//W3C//DTD SVG 1.1//EN" "http://www.w3.org/Graphics/SVG/1.1/DTD/svg11.dtd"><svg class="icon" width="64px" height="64.00px" viewBox="0 0 1024 1024" version="1.1" xmlns="http://www.w3.org/2000/svg"><path d="M621.9776 597.9648m-326.1952 0a326.1952 326.1952 0 1 0 652.3904 0 326.1952 326.1952 0 1 0-652.3904 0Z" fill="#A0B8EA" /><path d="M243.712 541.5936v-455.168c0-16.9472-13.7728-30.72-30.72-30.72s-30.72 13.7728-30.72 30.72v455.2192c-64.4096 14.1312-112.7424 71.5776-112.7424 140.1344s48.3328 126.0032 112.7424 140.1344v107.7248c0 16.9472 13.7728 30.72 30.72 30.72s30.72-13.7728 30.72-30.72v-107.7248c64.4096-14.1312 112.7424-71.5776 112.7424-140.1344 0-68.608-48.384-126.0544-112.7424-140.1856z m-30.72 222.1568c-45.2096 0-82.0224-36.8128-82.0224-82.0224s36.8128-82.0224 82.0224-82.0224 82.0224 36.8128 82.0224 82.0224-36.8128 82.0224-82.0224 82.0224zM941.0048 681.728c0-68.5568-48.3328-126.0032-112.7424-140.1344v-455.168c0-16.9472-13.7728-30.72-30.72-30.72s-30.72 13.7728-30.72 30.72v455.2192c-64.4096 14.1312-112.7424 71.5776-112.7424 140.1344s48.3328 126.0032 112.7424 140.1344v107.7248c0 16.9472 13.7728 30.72 30.72 30.72s30.72-13.7728 30.72-30.72v-107.7248c64.4096-14.1824 112.7424-71.6288 112.7424-140.1856z m-143.4624 82.0224c-45.2096 0-82.0224-36.8128-82.0224-82.0224s36.8128-82.0224 82.0224-82.0224 82.0224 36.8128 82.0224 82.0224-36.8128 82.0224-82.0224 82.0224zM539.5456 194.0992V86.4256c0-16.9472-13.7728-30.72-30.72-30.72s-30.72 13.7728-30.72 30.72v107.7248C413.696 208.2816 365.3632 265.728 365.3632 334.2848S413.696 460.288 478.1056 474.4192v455.2192c0 16.9472 13.7728 30.72 30.72 30.72s30.72-13.7728 30.72-30.72V474.368c64.4096-14.1312 112.7424-71.5776 112.7424-140.1344s-48.3328-126.0032-112.7424-140.1344z m-30.72 222.1568c-45.2096 0-82.0224-36.8128-82.0224-82.0224s36.8128-82.0224 82.0224-82.0224 82.0224 36.8128 82.0224 82.0224-36.7616 82.0224-82.0224 82.0224z" fill="#4F4F4F" /></svg>