<?xml version="1.0" standalone="no"?><!DOCTYPE svg PUBLIC "-//W3C//DTD SVG 1.1//EN" "http://www.w3.org/Graphics/SVG/1.1/DTD/svg11.dtd"><svg class="icon" width="64px" height="64.00px" viewBox="0 0 1024 1024" version="1.1" xmlns="http://www.w3.org/2000/svg"><path d="M615.5776 653.2608m-326.1952 0a326.1952 326.1952 0 1 0 652.3904 0 326.1952 326.1952 0 1 0-652.3904 0Z" fill="#FED1B0" /><path d="M967.68 72.0896a30.72 30.72 0 0 0-25.9072-14.2336h-252.8256c-12.032 0-22.9376 7.0144-27.9552 17.9712L569.8048 275.456c-17.1008-2.56-34.6112-3.8912-52.4288-3.8912-20.5312 0-40.6016 1.8432-60.2112 5.2224L365.312 75.776a30.73536 30.73536 0 0 0-27.9552-17.9712H84.5312a30.72 30.72 0 0 0-27.8016 43.7248l158.7712 339.3536a351.6928 351.6928 0 0 0-51.968 184.3712c0 195.072 158.72 353.792 353.792 353.792s353.792-158.72 353.792-353.792c0-70.7072-20.9408-136.6016-56.7808-191.8976l155.2384-331.8272c4.4544-9.472 3.7376-20.5824-1.8944-29.44zM317.6448 119.296l79.0528 173.0048a352.6656 352.6656 0 0 0-139.4688 92.8768L132.8128 119.296h184.832z m199.68 798.3616c-161.2288 0-292.352-131.1744-292.352-292.352s131.1744-292.352 292.352-292.352 292.352 131.1744 292.352 292.352-131.1232 292.352-292.352 292.352z m254.5152-538.4704a352.3584 352.3584 0 0 0-141.1072-89.3952l77.8752-170.496h184.832l-121.6 259.8912z" fill="#4F4F4F" /><path d="M613.7856 804.4544c-4.9152 0-9.7792-1.1776-14.2848-3.5328L517.3248 757.76l-82.176 43.2128a30.68416 30.68416 0 0 1-32.3584-2.3552 30.7712 30.7712 0 0 1-12.2368-30.0544l15.6672-91.4944-66.4576-64.8192a30.83264 30.83264 0 0 1-7.7824-31.488 30.73536 30.73536 0 0 1 24.7808-20.8896l91.8528-13.3632 41.0624-83.2512c5.1712-10.496 15.872-17.1008 27.5456-17.1008s22.3744 6.656 27.5456 17.1008l41.0624 83.2512 91.8528 13.3632a30.6688 30.6688 0 0 1 24.7808 20.8896 30.6176 30.6176 0 0 1-7.7824 31.488l-66.4576 64.8192 15.6672 91.4944c1.9968 11.52-2.7648 23.1936-12.2368 30.0544a30.08512 30.08512 0 0 1-17.8688 5.8368z m-96.4608-112.128c4.9152 0 9.8304 1.1776 14.2848 3.5328l41.3696 21.76-7.8848-46.08c-1.6896-9.984 1.5872-20.1216 8.8576-27.1872l33.4848-32.6144-46.2336-6.7072a30.68928 30.68928 0 0 1-23.1424-16.7936l-20.6848-41.8816-20.736 41.8304c-4.4544 9.0624-13.1072 15.36-23.1424 16.7936l-46.2336 6.7072 33.4848 32.6144a30.82752 30.82752 0 0 1 8.8576 27.1872l-7.8848 46.08 41.3696-21.76a30.7712 30.7712 0 0 1 14.2336-3.4816z" fill="#4F4F4F" /></svg>