<?xml version="1.0" standalone="no"?><!DOCTYPE svg PUBLIC "-//W3C//DTD SVG 1.1//EN" "http://www.w3.org/Graphics/SVG/1.1/DTD/svg11.dtd"><svg class="icon" width="64px" height="64.00px" viewBox="0 0 1024 1024" version="1.1" xmlns="http://www.w3.org/2000/svg"><path d="M610.56 615.7312m-281.4464 0a281.4464 281.4464 0 1 0 562.8928 0 281.4464 281.4464 0 1 0-562.8928 0Z" fill="#FED1B0" /><path d="M794.88 231.2704h-17.664V175.0528c0-62.1056-50.5344-112.64-112.64-112.64H363.4176c-62.1056 0-112.64 50.5344-112.64 112.64v56.2176h-17.664c-90.3168 0-163.84 73.5232-163.84 163.84v411.9552c0 90.3168 73.5232 163.84 163.84 163.84h561.7664c90.3168 0 163.84-73.5232 163.84-163.84V395.1104c0-90.3168-73.5232-163.84-163.84-163.84zM312.2176 175.0528c0-28.2112 22.9888-51.2 51.2-51.2h301.1584c28.2112 0 51.2 22.9888 51.2 51.2v56.2176H312.2176V175.0528z m585.0624 632.064c0 56.4736-45.9264 102.4-102.4 102.4H233.0624c-56.4736 0-102.4-45.9264-102.4-102.4V395.1104c0-56.4736 45.9264-102.4 102.4-102.4h561.7664c56.4736 0 102.4 45.9264 102.4 102.4v412.0064z" fill="#4F4F4F" /><path d="M658.3296 575.8464h-113.664v-113.664c0-16.9472-13.7728-30.72-30.72-30.72s-30.72 13.7728-30.72 30.72v113.664H369.6128c-16.9472 0-30.72 13.7728-30.72 30.72s13.7728 30.72 30.72 30.72h113.6128v113.6128c0 16.9472 13.7728 30.72 30.72 30.72s30.72-13.7728 30.72-30.72v-113.6128h113.664c16.9472 0 30.72-13.7728 30.72-30.72s-13.7728-30.72-30.72-30.72z" fill="#4F4F4F" /></svg>