<?xml version="1.0" standalone="no"?><!DOCTYPE svg PUBLIC "-//W3C//DTD SVG 1.1//EN" "http://www.w3.org/Graphics/SVG/1.1/DTD/svg11.dtd"><svg class="icon" width="64px" height="64.00px" viewBox="0 0 1024 1024" version="1.1" xmlns="http://www.w3.org/2000/svg"><path d="M598.528 628.7872m-281.4464 0a281.4464 281.4464 0 1 0 562.8928 0 281.4464 281.4464 0 1 0-562.8928 0Z" fill="#90D4DD" /><path d="M258.7136 415.1296c59.136 0 110.7968-32.2048 138.5984-79.9744 31.0272 41.6256 80.64 68.608 136.448 68.608 93.8496 0 170.1888-76.3392 170.1888-170.1888 0-93.8496-76.3392-170.1888-170.1888-170.1888-65.2288 0-121.9584 36.9152-150.528 90.9312-29.3888-36.3008-74.2912-59.5968-124.5184-59.5968-88.32 0-160.2048 71.8848-160.2048 160.2048s71.8848 160.2048 160.2048 160.2048z m275.0464-290.304c59.9552 0 108.7488 48.7936 108.7488 108.7488 0 59.9552-48.7936 108.7488-108.7488 108.7488-59.9552 0-108.7488-48.7936-108.7488-108.7488 0-59.9552 48.7936-108.7488 108.7488-108.7488zM258.7136 156.16c54.4256 0 98.7648 44.288 98.7648 98.7648 0 54.4256-44.288 98.7648-98.7648 98.7648-54.4256 0-98.7648-44.288-98.7648-98.7648 0.0512-54.4256 44.3392-98.7648 98.7648-98.7648zM945.9712 537.9072a61.4656 61.4656 0 0 0-54.6816-8.8576l-132.864 42.5472v-5.376c0-62.1056-50.5344-112.64-112.64-112.64H173.9264c-62.1056 0-112.64 50.5344-112.64 112.64v274.6368c0 62.1056 50.5344 112.64 112.64 112.64h471.9104c62.1056 0 112.64-50.5344 112.64-112.64v-15.2064l133.2736 41.5744c6.0928 1.8944 12.2368 2.816 18.3808 2.816 12.8 0 25.344-4.0448 35.9936-11.9296 15.8208-11.6224 24.8832-29.5936 24.8832-49.2032V587.264c0.0512-19.4048-9.3184-37.888-25.0368-49.3568z m-248.9344 302.9504c0 28.2112-22.9888 51.2-51.2 51.2H173.9264c-28.2112 0-51.2-22.9888-51.2-51.2V566.272c0-28.2112 22.9888-51.2 51.2-51.2h471.9104c28.2112 0 51.2 22.9888 51.2 51.2v274.5856z m212.5824-32.4096l-151.1424-47.1552v-125.184l151.1424-48.4352v220.7744z" fill="#4F4F4F" /></svg>