<?xml version="1.0" standalone="no"?><!DOCTYPE svg PUBLIC "-//W3C//DTD SVG 1.1//EN" "http://www.w3.org/Graphics/SVG/1.1/DTD/svg11.dtd"><svg class="icon" width="64px" height="64.00px" viewBox="0 0 1024 1024" version="1.1" xmlns="http://www.w3.org/2000/svg"><path d="M680.9088 663.5008m-281.4464 0a281.4464 281.4464 0 1 0 562.8928 0 281.4464 281.4464 0 1 0-562.8928 0Z" fill="#A0B8EA" /><path d="M894.8224 726.784c0.2048-1.3824 0.3072-2.816 0.3072-4.3008V186.9312c0-35.1232-15.0528-67.9936-41.2672-90.2656-24.8832-21.0944-57.3952-30.1568-89.1904-24.8832l-373.4528 61.952C336.3328 142.7968 296.448 191.232 296.448 248.8832v481.4848c-24.9344-15.7184-55.6544-24.9856-88.8832-24.9856-82.8928 0-150.3232 57.7536-150.3232 128.768s67.4304 128.768 150.3232 128.768c82.8928 0 150.3232-57.7536 150.3232-128.768V474.6752l475.8528-76.1344v243.0464c-24.6784-15.2064-54.8864-24.1664-87.5008-24.1664-82.8928 0-150.3232 57.7536-150.3232 128.768s67.4304 128.768 150.3232 128.768c82.8928 0 150.3232-57.7536 150.3232-128.768 0-6.6048-0.6144-13.056-1.7408-19.4048zM207.5648 901.4272c-48.9984 0-88.8832-30.208-88.8832-67.328s39.8848-67.328 88.8832-67.328 88.8832 30.208 88.8832 67.328c0 37.1712-39.8848 67.328-88.8832 67.328zM833.4336 336.3328L357.888 412.416V248.8832c0-27.4432 18.2784-50.3808 43.4176-54.5792l373.4528-61.952c14.1312-2.3552 28.1088 1.6384 39.3728 11.1616 12.4416 10.5472 19.6096 26.368 19.6096 43.4176v149.4016h-0.3072z m-87.2448 477.184c-48.9984 0-88.8832-30.208-88.8832-67.328s39.8848-67.328 88.8832-67.328 88.8832 30.208 88.8832 67.328c0.0512 37.12-39.8336 67.328-88.8832 67.328z" fill="#4F4F4F" /></svg>