<?xml version="1.0" standalone="no"?><!DOCTYPE svg PUBLIC "-//W3C//DTD SVG 1.1//EN" "http://www.w3.org/Graphics/SVG/1.1/DTD/svg11.dtd"><svg class="icon" width="64px" height="64.00px" viewBox="0 0 1024 1024" version="1.1" xmlns="http://www.w3.org/2000/svg"><path d="M590.4896 602.9824m-281.4464 0a281.4464 281.4464 0 1 0 562.8928 0 281.4464 281.4464 0 1 0-562.8928 0Z" fill="#F6EEA5" /><path d="M912.0256 344.7808h-42.9568l-54.8352-148.3776c-13.1584-35.584-47.4624-59.4944-85.4016-59.4944H665.088a0.38912 0.38912 0 0 1-0.1024-0.2048l-48.9984-72.5504a30.70976 30.70976 0 0 0-42.6496-8.2432 30.6688 30.6688 0 0 0-8.2432 42.6496l25.9072 38.3488h-303.616c-39.7312 0-74.5472 25.4464-86.6816 63.2832l-46.2848 144.5888h-40.448c-16.9472 0-30.72 13.7728-30.72 30.72s13.7728 30.72 30.72 30.72h36.0448l66.048 482.1504c6.144 44.8512 44.9024 78.6944 90.1632 78.6944h407.3472c44.8512 0 83.6096-33.4848 90.0608-77.8752l70.5536-482.9184h37.8368c16.9472 0 30.72-13.7728 30.72-30.72s-13.7216-30.7712-30.72-30.7712zM259.2256 218.9312c3.9424-12.288 15.2576-20.5824 28.16-20.5824h441.4464c12.3392 0 23.5008 7.7824 27.7504 19.3536l46.9504 127.0784H218.9312l40.2944-125.8496z m483.6864 661.3504c-2.0992 14.4384-14.6944 25.2928-29.2864 25.2928H306.2272c-14.6944 0-27.2896-11.008-29.3376-25.6L212.0704 406.2208h600.064l-69.2224 474.0608z" fill="#4F4F4F" /></svg>