<?xml version="1.0" standalone="no"?><!DOCTYPE svg PUBLIC "-//W3C//DTD SVG 1.1//EN" "http://www.w3.org/Graphics/SVG/1.1/DTD/svg11.dtd"><svg class="icon" width="64px" height="64.00px" viewBox="0 0 1024 1024" version="1.1" xmlns="http://www.w3.org/2000/svg"><path d="M662.272 643.4816m-287.1296 0a287.1296 287.1296 0 1 0 574.2592 0 287.1296 287.1296 0 1 0-574.2592 0Z" fill="#F1ACB3" /><path d="M803.4816 912.128H227.2256c-90.3168 0-163.84-73.5232-163.84-163.84v-78.1824c0-24.2688 15.5648-45.5168 38.7072-52.8384 45.9776-14.6432 76.8512-56.9344 76.8512-105.216 0-48.2816-30.8736-90.5728-76.9024-105.216a55.32672 55.32672 0 0 1-38.7072-52.8384V279.1936c0-90.3168 73.5232-163.84 163.84-163.84h576.3072c90.3168 0 163.84 73.5232 163.84 163.84v72.3456c0 25.088-17.152 47.2064-41.6768 53.76-48.1792 12.8512-81.8688 56.7296-81.8688 106.7008s33.6384 93.7984 81.8688 106.7008c24.576 6.5536 41.6768 28.672 41.6768 53.76v75.8272c0 90.3168-73.472 163.84-163.84 163.84zM124.8256 674.4064v73.8816c0 56.4736 45.9264 102.4 102.4 102.4h576.3072c56.4736 0 102.4-45.9264 102.4-102.4v-71.3216c-72.96-21.2992-123.5456-88.576-123.5456-164.9664 0-76.3904 50.5856-143.616 123.5456-164.9664V279.1936c0-56.4736-45.9264-102.4-102.4-102.4H227.2256c-56.4736 0-102.4 45.9264-102.4 102.4v70.4C194.0992 373.5552 240.384 438.272 240.384 512c0 73.728-46.2848 138.4448-115.5584 162.4064z m784.9472 3.6352z" fill="#4F4F4F" /><path d="M649.6768 441.4976H384.3072c-16.9472 0-30.72-13.7728-30.72-30.72s13.7728-30.72 30.72-30.72h265.3696c16.9472 0 30.72 13.7728 30.72 30.72s-13.7728 30.72-30.72 30.72zM649.6768 659.8144H384.3072c-16.9472 0-30.72-13.7728-30.72-30.72s13.7728-30.72 30.72-30.72h265.3696c16.9472 0 30.72 13.7728 30.72 30.72s-13.7728 30.72-30.72 30.72z" fill="#4F4F4F" /></svg>