<?xml version="1.0" standalone="no"?><!DOCTYPE svg PUBLIC "-//W3C//DTD SVG 1.1//EN" "http://www.w3.org/Graphics/SVG/1.1/DTD/svg11.dtd"><svg class="icon" width="64px" height="64.00px" viewBox="0 0 1024 1024" version="1.1" xmlns="http://www.w3.org/2000/svg"><path d="M627.6096 667.5968m-316.2624 0a316.2624 316.2624 0 1 0 632.5248 0 316.2624 316.2624 0 1 0-632.5248 0Z" fill="#F1ACB3" /><path d="M810.0864 979.712H210.0736c-59.2384 0-107.4176-48.1792-107.4176-107.4176 0-48.6912 32.5632-89.9072 77.056-103.0656v-193.024c0-182.7328 148.6848-331.4176 331.4176-331.4176s331.4176 148.6848 331.4176 331.4176v193.8432c43.264 13.9264 74.9056 54.8352 74.9056 102.2464 0.0512 59.1872-48.128 107.4176-107.3664 107.4176zM511.1296 306.176c-148.8896 0-269.9776 121.1392-269.9776 269.9776v219.392c0 16.9472-13.7728 30.72-30.72 30.72-25.7024 0-46.336 20.6336-46.336 45.9776s20.6336 45.9776 45.9776 45.9776h599.9616c25.344 0 45.9776-20.6336 45.9776-45.9776 0-24.7296-20.1216-45.3632-44.9024-45.9264a30.73024 30.73024 0 0 1-30.0032-30.72v-219.4944c0.0512-148.8384-121.088-269.9264-269.9776-269.9264zM510.0544 193.1776c-16.9472 0-30.72-13.7728-30.72-30.72V68.3008c0-16.9472 13.7728-30.72 30.72-30.72s30.72 13.7728 30.72 30.72v94.1568c0 16.9984-13.7216 30.72-30.72 30.72zM214.7328 306.176c-8.0384 0-16.0256-3.1232-22.0672-9.3184L125.2352 227.2768a30.6688 30.6688 0 0 1 0.6656-43.4176c12.1856-11.776 31.6416-11.52 43.4176 0.6656l67.4304 69.5808a30.6688 30.6688 0 0 1-0.6656 43.4176 30.52544 30.52544 0 0 1-21.3504 8.6528zM803.584 306.176c-7.68 0-15.4112-2.8672-21.3504-8.6528a30.67392 30.67392 0 0 1-0.6656-43.4176l67.4304-69.5808c11.8272-12.1856 31.2832-12.4928 43.4176-0.6656 12.1856 11.8272 12.4928 31.232 0.6656 43.4176l-67.4304 69.5808a30.6176 30.6176 0 0 1-22.0672 9.3184z" fill="#4F4F4F" /><path d="M654.1824 555.8784c-12.544 0-24.32-7.7312-28.8768-20.224-20.5824-56.6272-80.5376-84.1216-81.152-84.3776a30.67904 30.67904 0 0 1-15.872-40.448 30.67904 30.67904 0 0 1 40.448-15.872c3.4304 1.4848 84.48 37.632 114.3296 119.7056 5.7856 15.9232-2.4064 33.5872-18.3808 39.3728-3.4304 1.2288-7.0144 1.8432-10.496 1.8432z" fill="#4F4F4F" /></svg>