<?xml version="1.0" standalone="no"?><!DOCTYPE svg PUBLIC "-//W3C//DTD SVG 1.1//EN" "http://www.w3.org/Graphics/SVG/1.1/DTD/svg11.dtd"><svg class="icon" width="64px" height="64.00px" viewBox="0 0 1024 1024" version="1.1" xmlns="http://www.w3.org/2000/svg"><path d="M605.5936 597.0432m-287.6928 0a287.6928 287.6928 0 1 0 575.3856 0 287.6928 287.6928 0 1 0-575.3856 0Z" fill="#C7ACEF" /><path d="M515.6864 53.7088c-252.2112 0-457.4208 205.2096-457.4208 457.4208s205.2096 457.4208 457.4208 457.4208c252.2112 0 457.4208-205.2096 457.4208-457.4208s-205.1584-457.4208-457.4208-457.4208z m352.256 637.952c-79.872-28.1088-162.6112-141.6192-165.12-258.9184 143.616 25.1392 198.4512 73.6256 199.0144 74.0864 2.9184 2.7648 6.2976 4.864 9.8304 6.2464a393.8816 393.8816 0 0 1-43.7248 178.5856zM119.808 514.7648c1.536-0.9728 3.0208-2.0992 4.4032-3.3792 0.7168-0.6656 56.7808-50.688 200.448-77.2608-3.072 115.2512-83.3536 226.4064-161.8944 256.256a393.14944 393.14944 0 0 1-42.9568-175.616z m260.352-150.784c-16.2816-90.3168-57.7536-159.1296-76.6976-186.88a393.6 393.6 0 0 1 181.2992-60.6208v240.4352c-37.9392 0.9216-72.704 3.3792-104.6016 7.0656z m166.0416-247.552a393.0624 393.0624 0 0 1 179.0464 58.9312c-18.2784 26.4704-60.928 95.9488-77.6704 187.648-30.9248-3.2768-64.6656-5.4784-101.376-6.2464V116.4288z m358.0416 318.464c-36.096-20.3264-98.56-47.1552-195.7376-63.5392 14.6944-76.8512 50.688-136.3968 66.2016-159.3344 65.4848 56.7296 112.2304 134.5536 129.536 222.8736zM254.3104 214.0672c16.2816 24.3712 50.944 83.0464 65.024 158.7712-93.2864 16.7424-155.2896 43.1104-192.4096 63.6416 16.7936-87.8592 62.72-165.4784 127.3856-222.4128zM195.3792 743.5264c107.9808-47.1552 191.5392-186.1632 190.8224-318.5152 29.8496-3.4304 62.6176-5.7856 98.5088-6.656v487.424c-118.7328-9.216-222.976-71.0656-289.3312-162.2528z m350.8224 162.304V418.2528c34.6112 0.768 66.2528 2.8672 95.1296 5.9392-1.0752 133.7856 84.1216 274.688 193.792 320.6656-66.5088 90.5728-170.496 151.9104-288.9216 160.9728z" fill="#4F4F4F" /></svg>