<?xml version="1.0" standalone="no"?><!DOCTYPE svg PUBLIC "-//W3C//DTD SVG 1.1//EN" "http://www.w3.org/Graphics/SVG/1.1/DTD/svg11.dtd"><svg class="icon" width="64px" height="64.00px" viewBox="0 0 1024 1024" version="1.1" xmlns="http://www.w3.org/2000/svg"><path d="M705.7408 579.4304m-281.4464 0a281.4464 281.4464 0 1 0 562.8928 0 281.4464 281.4464 0 1 0-562.8928 0Z" fill="#A0B8EA" /><path d="M931.6864 230.7072h-83.712c-12.9024 0-24.4224 8.0896-28.8768 20.224-19.2 52.6336-69.7344 88.0128-125.7984 88.0128s-106.5984-35.3792-125.7984-88.0128a30.74048 30.74048 0 0 0-28.8768-20.224H451.9424c-7.424 0-14.5408 2.6624-20.1216 7.5264l-366.1824 318.1056a94.71488 94.71488 0 0 0-32.6144 71.5264v96.3072c0 52.2752 42.496 94.7712 94.7712 94.7712H904.2944c52.2752 0 94.7712-42.496 94.7712-94.7712V298.0352c-0.0512-37.12-30.2592-67.328-67.3792-67.328zM94.4128 724.224v-96.3072c0-9.6768 4.1984-18.8416 11.4688-25.1904l128.8704-111.9744 44.1856 53.4016a30.6176 30.6176 0 0 0 23.7056 11.1616c6.912 0 13.824-2.304 19.5584-7.0656a30.75584 30.75584 0 0 0 4.096-43.264l-45.1584-54.5792 51.712-44.9024 48.3328 58.4704a30.78656 30.78656 0 0 0 23.7056 11.1616c6.912 0 13.824-2.304 19.5584-7.0656a30.75584 30.75584 0 0 0 4.096-43.264l-49.3056-59.5968 84.1728-73.1136h55.0912c32.7168 65.536 100.4544 108.2368 174.848 108.2368 74.3936 0 142.1312-42.7008 174.848-108.2368h63.488c3.2256 0 5.888 2.6624 5.888 5.888v290.048c-74.5984-3.072-279.9616 4.7104-382.8736 169.4208H127.744c-18.3808 0.1024-33.3312-14.848-33.3312-33.2288z m809.8304 33.3312h-273.2032c92.8256-105.9328 250.7776-109.9776 306.5856-107.776v74.4448c-0.0512 18.3808-15.0016 33.3312-33.3824 33.3312z" fill="#4F4F4F" /></svg>