<?xml version="1.0" standalone="no"?><!DOCTYPE svg PUBLIC "-//W3C//DTD SVG 1.1//EN" "http://www.w3.org/Graphics/SVG/1.1/DTD/svg11.dtd"><svg class="icon" width="64px" height="64.00px" viewBox="0 0 1024 1024" version="1.1" xmlns="http://www.w3.org/2000/svg"><path d="M608.4096 618.8544m-289.2288 0a289.2288 289.2288 0 1 0 578.4576 0 289.2288 289.2288 0 1 0-578.4576 0Z" fill="#F6EEA5" /><path d="M875.6736 184.1152h-83.5072v-39.9872c0-50.7904-41.3696-92.16-92.16-92.16h-505.344c-50.7904 0-92.16 41.3696-92.16 92.16v141.4144c0 50.7904 41.3696 92.16 92.16 92.16h505.344c50.7904 0 92.16-41.3696 92.16-92.16v-39.936l83.7632 0.1536-0.2048 217.2928h-326.144c-33.9968 0-61.6448 27.648-61.6448 61.6448v88.9344H430.3872c-16.9472 0-30.72 13.7728-30.72 30.72v297.1648c0 16.9472 13.7728 30.72 30.72 30.72h179.0976c16.9472 0 30.72-13.7728 30.72-30.72v-297.1648c0-16.9472-13.7728-30.72-30.72-30.72H549.376l0.1536-89.1392h326.144c33.9968 0 61.6448-27.648 61.6448-61.6448V245.76c0.0512-33.9968-27.5968-61.6448-61.6448-61.6448z m-144.9472 101.4272c0 16.9472-13.7728 30.72-30.72 30.72h-505.344c-16.9472 0-30.72-13.7728-30.72-30.72V144.128c0-16.9472 13.7728-30.72 30.72-30.72h505.344c16.9472 0 30.72 13.7728 30.72 30.72v141.4144z m-151.9616 625.2544H461.1072v-235.7248h117.6576v235.7248z" fill="#4F4F4F" /></svg>